<?xml version="1.0" encoding="UTF-8" standalone="no"?>
<!-- Created with Inkscape (http://www.inkscape.org/) -->

<svg
   xmlns:dc="http://purl.org/dc/elements/1.1/"
   xmlns:cc="http://creativecommons.org/ns#"
   xmlns:rdf="http://www.w3.org/1999/02/22-rdf-syntax-ns#"
   xmlns:svg="http://www.w3.org/2000/svg"
   xmlns="http://www.w3.org/2000/svg"
   version="1.1"
   width="500"
   height="357"
   id="svg2">
  <metadata
     id="metadata8">
    <rdf:RDF>
      <cc:Work
         rdf:about="">
        <dc:format>image/svg+xml</dc:format>
        <dc:type
           rdf:resource="http://purl.org/dc/dcmitype/StillImage" />
        <dc:title></dc:title>
      </cc:Work>
    </rdf:RDF>
  </metadata>
  <defs
     id="defs6" />
  <path
     d="m 147,352.42566 c -4.675,-0.73978 -17.5,-2.04082 -28.5,-2.89119 -22.956593,-1.7747 -25.174152,-2.1298 -26.342927,-4.21828 -0.723113,-1.29213 -1.256359,-1.12599 -3.460502,1.07815 C 85.690932,349.39998 89.605451,349.17881 42,349.03268 11.860336,348.94016 10.440751,348.851 9.1280279,346.96799 8.3734433,345.8856 6.9412678,345 5.9454156,345 c -2.4249661,0 -3.1147045,-2.6205 -3.2474259,-12.33783 -0.1203461,-8.81126 1.2022056,-14.02371 5.0281622,-19.81703 2.1944879,-3.32293 2.3507961,-4.29325 1.7210652,-10.68403 -0.6703032,-6.80252 -0.6030177,-7.11222 2.0868109,-9.60507 3.160708,-2.92924 3.176505,-2.8858 -1.515917,-4.16862 C 7.8690273,287.7999 5.7057517,286.2032 4.366657,284.21612 1.4131655,279.83343 0.76826002,268.19318 0.61885944,216.57008 0.48197904,169.27313 0.17799527,171.08325 8.9606829,166.89747 l 5.4606831,-2.60252 -5.2695466,-0.50634 C 1.9131333,163.09306 1.4509604,162.41775 3.0059384,154.8084 4.6391683,146.81613 4.6338257,95.163179 2.9948499,47.604516 1.6616222,8.9178382 1.3625026,10.628213 10.240529,6.1735197 15.792055,3.3879516 32.133419,1.9306685 35.801962,3.8940131 37.547725,4.8283175 38.466736,4.740289 40.435716,3.4501637 43.77992,1.2589568 65.213983,0.10277457 67.489003,1.990873 68.765754,3.0504822 69.355164,2.9885557 70.847498,1.6380122 72.478735,0.16176312 78.180679,0 128.58534,0 c 31.32866,0 57.3485,0.40743387 59.15778,0.92632701 1.98202,0.56843599 3.4511,0.56843599 3.80241,0 0.91216,-1.47590626 63.81393,-1.07016545 80.45447,0.51896259 17.44062,1.6655332 24.20194,3.6613933 27.83708,8.217164 l 2.62536,3.2902624 4.24938,-4.6284552 4.24939,-4.6284556 9.76939,0.808754 c 5.37317,0.4448147 26.59413,0.8948733 47.15768,1.0001301 l 37.38829,0.1913761 3.24373,-2.8480327 C 411.48637,0.24378527 412.42434,0 419.47811,0 c 4.24274,0 10.08843,0.690244 12.99042,1.5338756 4.34155,1.2621218 6.31766,1.3305626 11.15391,0.3863044 3.23266,-0.631164 14.49692,-1.35527313 25.03169,-1.60913127 16.16072,-0.38942748 19.63332,-0.21376129 22.22036,1.12404597 1.68642,0.8720834 3.46806,2.3684485 3.95919,3.3252557 C 495.32481,5.7171577 495.98823,27.2 496.30794,52.5 c 0.55043,43.557168 0.48252,46.185868 -1.27885,49.5 -1.83722,3.45687 -1.83346,3.54313 0.30538,7 2.04235,3.30091 2.16465,4.69456 2.15005,24.5 -0.009,11.55 -0.38776,24.09284 -0.84277,27.87298 -0.72871,6.05412 -1.29279,7.37801 -4.73451,11.11183 -2.14898,2.33137 -3.90724,4.50796 -3.90724,4.83688 0,0.32891 1.80534,1.13892 4.01188,1.80001 2.20653,0.6611 4.39051,1.69166 4.85329,2.29015 0.48452,0.62658 -0.37892,5.27431 -2.03557,10.95713 -1.91904,6.58291 -2.5536,10.25865 -1.90575,11.03926 0.56433,0.67998 0.98028,10.73523 0.99281,24.00035 0.0119,12.55654 0.2944,26.03887 0.62786,29.96074 0.89497,10.52593 -1.09484,36.29542 -3.03071,39.24994 -1.45971,2.22779 -1.41162,2.59993 0.70606,5.46425 1.80048,2.43528 2.33959,4.6669 2.59577,10.74506 0.30816,7.31148 0.15382,7.95026 -3.28932,13.61425 -5.70903,9.3914 -14.17574,19.26741 -18.8829,22.02599 -3.92989,2.30307 -5.47868,2.5556 -17.06268,2.78208 l -12.74046,0.2491 -2.35298,-2.72769 -2.35299,-2.72769 -1.97907,2.71683 -1.97907,2.71683 -29.83809,0.68916 c -16.41094,0.37903 -37.93808,0.4465 -47.83808,0.14992 -16.78205,-0.50275 -18.25229,-0.70089 -21.72856,-2.9283 C 332.72073,348.07508 330.45836,347 329.74395,347 c -2.05933,0 -5.75475,-2.96942 -7.72276,-6.20555 l -1.80745,-2.97212 -1.12571,3.41093 c -0.61914,1.87601 -2.6394,4.87805 -4.48947,6.67122 -2.83056,2.74348 -4.37311,3.36612 -9.73117,3.92791 -13.15572,1.37936 -106.14176,-0.24675 -110.61739,-1.93445 -1.2375,-0.46664 -2.25,-1.50198 -2.25,-2.30075 0,-1.10076 -1.39184,-0.74797 -5.75,1.45746 -3.96645,2.0072 -8.37842,3.22546 -14.22377,3.92755 -10.38649,1.24754 -14.15502,1.16373 -25.02623,-0.55654 z M 327,324.19578 C 327,322.68891 321.04798,314 320.01575,314 c -0.56556,0 0.32453,1.86752 1.97798,4.15004 1.65345,2.28252 3.00627,4.75752 3.00627,5.5 0,0.74248 0.45,1.34996 1,1.34996 0.55,0 1,-0.3619 1,-0.80422 z"
     id="path3001"
     style="fill:#eac484" />
  <path
     d="m 144.34656,350.97731 c -6.6844,-0.97628 -19.2844,-2.28214 -28,-2.90191 -23.249386,-1.65328 -25.3237,-2.2332 -21.82324,-6.10117 C 96.222359,340.09682 95.96128,337 94.103965,337 92.809944,337 89,341.9355 89,343.61181 c 0,2.64564 -4.422311,4.26112 -12.5,4.56627 -4.4,0.16621 -20.979629,0.19414 -36.84362,0.0621 -27.616636,-0.22992 -28.865238,-0.32281 -29.351831,-2.18354 -0.3105839,-1.18768 -1.5380007,-2.06263 -3.1563802,-2.25 -2.6197033,-0.3033 -2.6513825,-0.40334 -2.9471386,-9.3066 -0.3504005,-10.54824 0.9015219,-16.45683 4.4813412,-21.15021 2.3714536,-3.10914 2.5344556,-3.92921 1.9380586,-9.75039 -0.7793542,-7.60693 -0.277062,-9.20848 3.500751,-11.16207 5.102916,-2.63882 3.588479,-4.76964 -4.020855,-5.65738 C 2.8713336,285.93659 0.99860393,271.53613 0.70057533,214.5 0.52208885,180.34161 0.67437649,176.18507 2.2069568,173.38484 3.9959458,170.11612 8.1222654,167.70266 14,166.48717 c 9.155292,-1.89329 8.844779,-4.83433 -0.410295,-3.88612 C 5.6096318,163.41864 2.4879311,162.04773 3.4803262,158.16148 3.8541271,156.69767 4.6969284,146.5 5.353218,135.5 6.2777694,120.00369 6.2774663,105.06032 5.3518719,69.13947 4.6948421,43.641178 3.8555792,20.585369 3.4868433,17.904339 2.8701755,13.420629 3.0506144,12.795539 5.7370105,10.109143 9.4110619,6.4350919 14.166817,5.0189316 25.266925,4.2935607 32.695266,3.8081327 34.325026,3.984169 35.940875,5.4464928 37.751383,7.0849799 37.990931,7.0702044 40.67395,5.1545523 43.534178,3.1123747 54.331415,1 61.909616,1 c 3.329934,0 4.264406,0.4540419 5.401657,2.6245621 l 1.375147,2.624562 2.247245,-3.1559658 2.247246,-3.15596585 56.860169,0.28140377 C 173.88802,0.43559684 187.18719,0.78607986 188.15063,1.75 189.86138,3.4616144 192,3.3227205 192,1.5 c 0,-1.3005794 3.8887,-1.49163481 29.25,-1.43707878 16.0875,0.03460667 33.075,0.48117054 37.75,0.99236418 4.675,0.5111936 12.79963,1.3563168 18.05472,1.8780516 13.12385,1.3029576 20.4154,4.1269461 22.83543,8.84408 l 1.85805,3.621707 3.1259,-3.422423 C 306.59334,10.094368 308,8.2161211 308,7.8028189 c 0,-0.4133022 1.33698,-1.4428383 2.97107,-2.287858 2.29856,-1.1886338 3.93961,-1.3247568 7.25,-0.6013804 8.91076,1.9471528 48.65197,3.3619889 60.60162,2.1574928 6.22749,-0.6277149 14.6924,-0.8359452 18.81093,-0.4627338 l 7.48824,0.6785661 3.8637,-3.77281 3.86371,-3.77280992 8.50228,0.44625547 c 5.32319,0.27939601 9.14802,0.98210675 10.22929,1.87935715 2.24148,1.8600111 13.04613,1.7765502 16.41916,-0.1268303 1.82686,-1.03088549 7.34663,-1.49679725 20.5,-1.73035861 16.18035,-0.28731072 18.35382,-0.12693118 21.5,1.58647261 4.73897,2.5808357 6.20069,5.8062286 5.15879,11.383246 -0.45559,2.438673 -0.48699,22.179734 -0.0698,43.869024 0.73474,38.195812 0.69533,39.582099 -1.25408,44.113618 l -2.01265,4.67854 2.18074,2.94961 c 1.75321,2.37134 2.3253,4.98459 2.91809,13.32969 0.40555,5.70905 0.65715,12.40509 0.55912,14.88009 -0.2644,6.6756 -2.49139,29.23661 -3.08116,31.21438 -0.28118,0.94291 -2.511,3.47464 -4.95515,5.62607 -2.44416,2.15143 -4.44392,4.14758 -4.44392,4.43588 0,0.2883 2.25139,1.06429 5.00308,1.72441 2.7517,0.66012 5.24323,1.58877 5.53673,2.06367 0.53773,0.87008 -1.69663,10.6919 -3.78771,16.65001 -0.84423,2.40546 -0.83658,3.78962 0.0304,5.5 0.83539,1.64809 1.09702,14.32556 0.93802,45.45218 l -0.22049,43.1666 -2.34352,3.1694 -2.34352,3.1694 2.02691,2.164 c 2.86648,3.06037 4.29385,7.34611 4.44071,13.33349 0.11534,4.70247 -0.37534,5.92207 -5.43139,13.5 -6.08021,9.11291 -13.92421,18.26511 -17.12037,19.97564 -1.81784,0.97288 -14.23427,2.20773 -22.22882,2.21072 -5.49826,0.002 -8.43485,-1.24808 -9.09318,-3.87108 -0.81196,-3.23513 -1.37743,-3.14692 -4.5468,0.70929 l -2.63998,3.21209 -15.36002,0.22298 c -8.44801,0.12264 -23.01002,0.48706 -32.36002,0.80982 -9.35,0.32276 -23.75,0.17641 -32,-0.32522 -14.64616,-0.89054 -15.17692,-1.0029 -22.5,-4.76289 -8.95866,-4.59978 -9.35304,-5.70752 -5.51492,-15.49025 1.49631,-3.81384 2.39965,-7.6484 2.05651,-8.72956 C 326.33546,318.33085 320.99393,312 318.99373,312 c -2.83482,0 -2.46852,2.28022 0.95504,5.94516 4.20154,4.49776 4.58963,6.60494 2.19847,11.93662 -1.13916,2.54002 -3.10081,7.27706 -4.35922,10.52675 -2.78321,7.18729 -6.00273,9.79291 -13.04125,10.55454 -4.38746,0.47475 -35.60691,0.0848 -98.41431,-1.2294 -6.14215,-0.12852 -11.50533,-0.57185 -11.91818,-0.98518 -0.41284,-0.41333 -0.17266,-1.83145 0.53375,-3.15138 2.37494,-4.43763 0.6566,-4.94417 -3.88901,-1.14642 -5.61596,4.692 -8.79573,5.97294 -18.34987,7.39208 -9.75495,1.44897 -13.24534,1.34247 -28.36259,-0.86546 z m 270.38261,-14.58148 c -0.33229,-0.33229 -1.1948,-0.36781 -1.91667,-0.0789 -0.79773,0.31922 -0.56078,0.55618 0.60417,0.60416 1.05416,0.0434 1.64479,-0.19293 1.3125,-0.52522 z M 166.5,318.97859 c 3.3,-1.22999 7.79584,-2.30123 9.99075,-2.38054 2.95643,-0.10682 4.07934,-0.60423 4.33257,-1.91916 C 181.32171,312.09095 179.161,310 175.98834,310 c -1.52172,0 -3.74098,-0.78887 -4.93168,-1.75304 -1.8819,-1.52386 -2.12516,-2.58919 -1.86079,-8.14911 l 0.30413,-6.39607 4.92432,-1.43198 c 3.68693,-1.07215 5.52055,-1.16032 7.29705,-0.35089 4.96117,2.26046 8.85906,0.72676 10.59525,-4.16891 0.86731,-2.44564 5.31688,-2.20725 10.18338,0.54557 l 4,2.26268 0.69831,8.4 c 0.38407,4.62001 0.45373,8.79575 0.1548,9.27943 -0.29893,0.48367 -1.86057,0.59014 -3.4703,0.23658 -2.35523,-0.5173 -3.59316,-0.0577 -6.33909,2.35321 -1.87677,1.64783 -4.34188,3.29108 -5.47801,3.65168 -4.20174,1.33358 -1.86213,2.52085 4.96753,2.52085 5.51986,0 8.09482,0.53794 11.96676,2.5 6.52699,3.30748 7.22504,3.2165 6.4636,-0.84235 -0.54427,-2.9012 -0.21016,-3.69312 2.53141,-6 3.7974,-3.1953 7.16564,-3.35347 14.00499,-0.65765 6.80889,2.68381 11.24108,2.52906 16.54214,-0.57757 4.07748,-2.38956 4.55989,-2.46437 6.61382,-1.02574 1.21855,0.8535 5.30735,2.50872 9.08623,3.67827 7.21901,2.23425 12.57672,2.05309 14.69296,-0.49682 0.62486,-0.75291 2.79213,-1.6796 4.81616,-2.05931 3.21059,-0.60231 7.78918,-3.55305 12.02803,-7.75164 0.70364,-0.69695 3.45274,-4.20565 6.10911,-7.79711 3.97427,-5.37328 4.74725,-7.09217 4.36389,-9.70415 -0.40815,-2.78092 -0.13239,-3.25793 2.22553,-3.84973 1.85782,-0.46628 3.19184,-0.17507 4.30716,0.94026 1.48769,1.48768 1.40312,1.83772 -1.06687,4.41583 -1.47545,1.54003 -2.95858,4.17983 -3.29586,5.86621 -0.50831,2.54153 -0.14607,3.43363 2.11709,5.21383 1.50168,1.18122 3.48837,2.14767 4.41486,2.14767 0.9265,0 4.12831,1.82956 7.11514,4.0657 4.37637,3.27643 5.99625,3.95437 8.34432,3.49226 1.82788,-0.35974 3.8093,0.0134 5.31692,1.0012 1.89804,1.24364 2.7084,1.32136 3.85505,0.36973 1.15134,-0.95552 1.82646,-0.86588 3.26182,0.4331 0.99549,0.9009 2.91192,1.63801 4.25873,1.63801 1.34682,0 3.47791,0.72084 4.73576,1.60188 1.60959,1.1274 3.37864,1.41443 5.9725,0.96904 9.72639,-1.6701 17.27442,-1.80048 18.97934,-0.32785 2.83248,2.44658 7.60848,3.67749 9.2604,2.38666 3.37761,-2.63928 4.26213,-4.54362 2.88252,-6.20595 -1.08413,-1.30629 -1.06229,-1.73178 0.12755,-2.48468 2.29866,-1.45453 5.9357,-1.11085 5.9357,0.5609 0,1.91625 3.04438,1.93367 5.55887,0.0318 2.68194,-2.02852 4.81164,-1.88486 6.94113,0.4682 2.16278,2.38985 3.09034,2.50995 3.86163,0.5 0.78922,-2.05668 -0.27966,-4.5 -1.96862,-4.5 -2.98927,0 -1.07968,-4.59355 2.72817,-6.56267 2.28492,-1.18157 2.87882,-2.16602 2.87882,-4.77188 0,-1.80576 0.63544,-4.1522 1.41208,-5.21433 1.36897,-1.87217 1.4414,-1.85511 2.37211,0.55887 3.18935,8.2722 3.51348,10.29918 1.84234,11.52115 -1.77598,1.29863 -2.05887,3.23893 -0.76878,5.27293 0.6621,1.0439 1.75032,1.07161 5.45445,0.1389 5.93227,-1.49376 6.97011,-2.7348 5.5137,-6.59326 -1.76961,-4.68824 -0.45334,-8.02822 3.41544,-8.66648 4.66224,-0.76915 16.4987,-5.02327 17.91378,-6.43835 0.93016,-0.93016 0.8434,-1.59372 -0.38849,-2.97125 -2.72367,-3.04566 -2.66044,-6.85517 0.12848,-7.74034 2.40273,-0.7626 3.62698,-6.65268 2.03053,-9.76928 -0.63784,-1.2452 -2.00577,-2.93998 -3.03984,-3.76617 -1.83461,-1.4658 -1.8286,-1.6063 0.24857,-5.80462 1.17078,-2.36636 4.11671,-5.82043 6.54651,-7.67572 2.4298,-1.8553 5.29164,-4.48415 6.35965,-5.8419 2.67848,-3.40513 5.73975,-10.80755 6.13258,-14.82913 0.28506,-2.91823 -0.0797,-3.53842 -2.85061,-4.84647 -2.33293,-1.1013 -3.17315,-2.16449 -3.16111,-4 0.039,-5.9461 -1.91197,-15.06691 -3.62857,-16.96373 C 459.51928,198.91632 457.61242,198 456.29535,198 c -2.78988,0 -7.38455,-2.19762 -9.22097,-4.41038 -1.07297,-1.29285 -0.76688,-2.19006 1.89281,-5.5482 C 452.0958,184.09124 452.2598,182 449.44098,182 c -1.78548,0 -1.78386,-0.11351 0.0519,-3.63569 0.89693,-1.72094 1.26379,-4.09711 0.91903,-5.95265 -0.33515,-1.80385 0.0714,-4.63246 0.9774,-6.8009 1.47442,-3.52879 1.72646,-3.67967 5.09192,-3.04831 2.29471,0.43049 4.0811,0.21577 5.07629,-0.61016 1.34849,-1.11915 1.16442,-1.61339 -1.51096,-4.05698 -2.67668,-2.44476 -3.04653,-3.439 -3.04653,-8.18972 0,-2.97393 0.50331,-6.85093 1.11846,-8.61556 0.82306,-2.36104 0.82447,-4.71141 0.005,-8.89922 -0.83479,-4.26784 -0.81574,-7.1911 0.0762,-11.69081 0.65413,-3.3 1.21422,-8.77223 1.24466,-12.1605 0.05,-5.56189 -0.21187,-6.37059 -2.69465,-8.32258 -3.21347,-2.526467 -3.60624,-6.36293 -1.09872,-10.732034 1.48566,-2.588615 1.50447,-3.317638 0.1875,-7.26854 -0.80508,-2.41524 -1.98537,-4.56521 -2.62287,-4.77771 -1.96573,-0.655243 -6.0004,4.289328 -7.25336,8.889152 -1.97635,7.255512 -1.97738,7.257715 -2.9393,6.289429 -1.47995,-1.489747 -2.86741,-12.892973 -3.48396,-28.633817 -0.31703,-8.09413 -0.84122,-15.40663 -1.16485,-16.25 -0.70501,-1.837242 -2.52522,-1.982617 -4.17444,-0.3334 -1.60942,1.609417 -1.51308,3.629779 0.25751,5.400367 1.78105,1.781047 1.03418,4.1088 -1.58504,4.94011 -1.06852,0.339136 -2.95489,2.215824 -4.19193,4.170417 -2.00918,3.174646 -2.78918,3.597098 -7.31076,3.959581 -5.71526,0.458177 -6.57376,-0.162848 -8.74938,-6.329212 -1.37046,-3.884322 -1.31975,-4.123428 1.98662,-9.367328 4.83342,-7.665798 4.59948,-8.688221 -1.98794,-8.688221 -5.05961,0 -5.46266,0.185533 -6.75,3.107143 C 404.77755,46.870109 403.99319,47.429538 402,47.152426 398.44612,46.658331 397,45.168123 397,42 397,37.849488 394.64036,36.350402 391.42422,38.457697 388.5105,40.36684 386,39.884157 386,37.414808 c 0,-1.309892 -0.56415,-1.496673 -2.75,-0.910486 -5.00253,1.341545 -17.02286,1.687606 -19.14623,0.551213 -1.12747,-0.603403 -4.38641,-1.540199 -7.24209,-2.081768 -4.42192,-0.838598 -5.47567,-0.728085 -7.10338,0.744968 -1.05118,0.951301 -3.33932,2.191254 -5.08476,2.755452 -2.9099,0.940594 -3.25889,1.523561 -4.20098,7.017402 -0.74719,4.357297 -1.49729,6.082075 -2.75,6.323324 C 336.35543,52.0782 336,51.419055 336,48.620377 c 0,-5.362268 -1.87216,-8.380076 -6.62657,-10.681648 -5.24977,-2.541371 -8.00608,-1.887741 -8.88339,2.1066 -0.74186,3.377704 -1.57388,3.601067 -5.01504,1.346336 -2.25576,-1.478035 -2.5047,-1.477854 -3.07266,0.0022 -0.33992,0.885814 -0.33074,2.75526 0.0204,4.154324 1.03581,4.126986 -0.37144,4.875116 -3.51146,1.866787 -2.66196,-2.550319 -3.14184,-2.667854 -6.6403,-1.62637 -2.07405,0.617437 -5.41059,1.378985 -7.41454,1.692329 -3.16823,0.495393 -3.7123,0.990389 -4.1705,3.794372 -1.48866,9.109895 -2.07123,10.172083 -5.92236,10.798067 -2.01233,0.327094 -4.33015,1.151904 -5.15071,1.832911 -2.28243,1.894248 -7.05827,0.985596 -7.39156,-1.406321 -0.46651,-3.347894 4.00781,-10.825375 8.02868,-13.417542 2.0625,-1.329648 3.75,-3.003712 3.75,-3.720141 0,-0.716429 -1.82324,-2.328535 -4.05164,-3.582457 -3.48419,-1.96056 -3.98032,-2.652789 -3.54244,-4.942641 1.13028,-5.91073 -4.82101,-5.928347 -15.72135,-0.04654 -4.20029,2.26647 -5.20491,2.45139 -7.86432,1.447574 -2.74533,-1.036248 -3.73173,-0.781821 -9.90737,2.55546 -6.75532,3.650544 -6.90367,3.680859 -9.86333,2.015621 -1.75636,-0.988202 -3.24939,-1.294997 -3.5934,-0.738383 C 228.61827,43.426664 218.17909,50 216.86395,50 c -0.68991,0 -0.82318,-0.835236 -0.35901,-2.25 0.40601,-1.2375 0.94907,-4.102964 1.2068,-6.367698 0.42025,-3.692842 0.15551,-4.340638 -2.56586,-6.278426 -2.76009,-1.96536 -3.46898,-2.055742 -7.84017,-0.999608 -2.64314,0.638616 -5.53578,2.071843 -6.42808,3.184949 -1.43744,1.793147 -2.37395,1.953646 -8.21619,1.408089 -3.70492,-0.345971 -6.84468,-0.209837 -7.1664,0.310722 -0.31492,0.509554 -1.79264,0.68947 -3.28381,0.399811 -2.31727,-0.450124 -3.65153,0.426484 -9.18234,6.032755 C 169.46978,49.048267 165.99142,52 165.29921,52 164.607,52 163.12236,50.2 162,48 c -2.27595,-4.46124 -4.60143,-5.147758 -5.92787,-1.75 -1.39823,3.581667 -6.99897,8.241095 -14.71128,12.238769 -8.34987,4.328155 -10.86085,4.327585 -10.86085,-0.0025 0,-2.864309 0.21197,-3.007629 5.18864,-3.508281 2.85376,-0.287087 5.34747,-0.737087 5.5416,-1 5.54172,-7.505482 7.70788,-14.104139 6.37428,-19.417623 -0.49466,-1.970848 -1.27145,-2.557007 -3.37357,-2.545659 -1.50202,0.0081 -3.65278,0.570608 -4.77946,1.25 -6.8668,4.140687 -8.51534,5.417148 -9.02145,6.985258 -0.75554,2.340934 -3.69752,2.216905 -5.93004,-0.25 -0.99549,-1.1 -2.41523,-2 -3.15499,-2 -1.85481,0 -1.76469,7.559056 0.15499,13 1.90427,5.397285 1.89338,8.33861 -0.0448,12.086574 -1.40485,2.716689 -1.86764,2.926684 -5.1095,2.318506 -4.35353,-0.816726 -5.56829,0.628559 -4.70254,5.59492 0.79337,4.551117 3.19307,7.276082 5.80587,6.592818 1.11524,-0.291641 3.77473,-0.0068 5.90997,0.632897 3.67824,1.102027 3.98541,1.021555 5.84502,-1.53128 C 130.55998,74.83305 132.06855,74 134.08341,74 c 1.60412,0 2.93936,0.3375 2.96719,0.75 0.82908,12.288906 -0.26265,14.327806 -5.16838,9.652452 L 128.83675,81.5 l -4.02244,4.75 c -2.37389,2.803266 -4.85951,4.75 -6.06487,4.75 -1.12334,0 -4.56401,1.6875 -7.64593,3.75 -5.4741,3.663398 -10.6066,4.846436 -15.428078,3.556163 -2.559365,-0.684911 -5.258217,-7.58059 -6.120909,-15.639175 l -0.731491,-6.833011 5.51773,0.689395 5.517729,0.689394 2.427699,-4.856383 C 103.62142,69.685372 105.03832,66.15 105.43486,64.5 c 0.39654,-1.65 2.05199,-6.037049 3.67878,-9.748998 2.34824,-5.35812 2.7371,-7.161378 1.8869,-8.75 C 110.41154,44.900451 109.67413,44 109.36185,44 c -0.31227,0 -3.68258,2.687496 -7.48957,5.972213 -6.880457,5.936543 -6.956615,5.970887 -12.750828,5.75 L 83.292424,55.5 l -7.527164,6.733349 -7.527164,6.73335 -0.67803,7.26665 c -0.600743,6.438338 -0.394093,7.907795 1.812904,12.891296 2.257813,5.098248 2.351615,5.823553 1.002278,7.75 -2.01186,2.872334 -2.863598,2.703672 -6.941915,-1.374645 -6.066986,-6.066986 -10.401638,-3.619676 -10.448646,5.89922 -0.02315,4.68867 -1.360631,6.1044 -5.435343,5.75334 C 44.720691,106.90886 44,107.20167 44,108.59464 c 0,0.96133 0.748701,2.57518 1.66378,3.58633 1.43411,1.58468 1.479923,2.182 0.331877,4.32715 -1.253051,2.34134 -1.074588,2.72623 3.014433,6.5012 4.106036,3.79067 4.333829,4.28662 4.120113,8.97038 -0.124423,2.72683 0.470381,7.30359 1.321786,10.17059 0.851406,2.86699 1.548011,6.30913 1.548011,7.6492 0,1.34006 1.35,3.97405 3,5.85329 1.65,1.87925 3,4.37829 3,5.55343 0,2.75035 -7.757907,10.21519 -12.33711,11.87105 -1.923738,0.69563 -3.964164,2.28855 -4.53428,3.53982 -0.674307,1.47994 -2.2634,2.50518 -4.546963,2.93358 -4.382459,0.82216 -4.752645,1.32073 -7.530759,10.14268 -1.90753,6.05739 -2.150737,8.34718 -1.540094,14.5 0.398836,4.01866 1.572067,8.97623 2.607181,11.01682 2.457665,4.84496 2.378212,5.97507 -0.617975,8.78984 -2.163532,2.03253 -2.5,3.21329 -2.5,8.77318 0,7.94548 2.031535,12.53937 6.478402,14.64955 1.828121,0.8675 3.79673,1.57727 4.374686,1.57727 0.577957,0 2.443205,2.02375 4.144997,4.49722 2.478737,3.60272 3.9738,4.71871 7.516661,5.61081 3.967441,0.99901 4.653893,1.6256 6.671352,6.08957 1.37571,3.04398 3.323582,5.53173 5.016892,6.40737 3.317137,1.71536 4.537352,5.64317 2.775701,8.93485 -0.75096,1.40318 -4.134195,3.72636 -8.21489,5.64096 C 52.573232,289.55448 49,293.17122 49,297.07563 49,300.2215 51.798463,303 54.966929,303 c 1.802847,0 3.382525,0.98139 4.91406,3.0529 1.241408,1.67909 3.463534,3.58466 4.938058,4.2346 1.474524,0.64994 3.26897,1.97614 3.987657,2.9471 1.73598,2.34536 2.305164,2.25265 6.464877,-1.05308 2.064502,-1.64066 5.987454,-3.34911 9.387504,-4.08828 3.212503,-0.6984 6.622309,-1.68009 7.577346,-2.18153 3.08595,-1.62027 4.771332,-0.99021 8.682919,3.246 3.44847,3.73467 4.41101,4.20514 9.45987,4.62383 3.41226,0.28297 5.62078,0.93295 5.62078,1.65423 0,0.65346 1.39244,2.21759 3.0943,3.47583 2.38118,1.76048 3.82158,2.13273 6.25,1.61521 1.73564,-0.36987 4.5057,-0.62377 6.1557,-0.56421 1.65,0.0596 5.99911,0.20483 9.66469,0.32284 3.66558,0.11801 7.04058,0.5994 7.5,1.06976 1.34514,1.37716 11.33598,0.0458 17.83531,-2.37661 z M 156,306.26642 C 156,304.77315 158.31974,303 160.27332,303 c 3.04907,0 1.66532,3.4474 -1.53187,3.81642 -1.5078,0.17403 -2.74145,-0.0735 -2.74145,-0.55 z m 121.2674,-5.44423 c -0.88531,-1.06672 -0.68175,-2.11939 0.88978,-4.60146 1.12074,-1.77008 2.44385,-2.96731 2.94026,-2.66051 1.46913,0.90797 1.03355,4.05644 -0.88979,6.43167 -1.49228,1.84289 -1.98452,1.98189 -2.94025,0.8303 z M 129.08333,298.6004 c -0.7607,-0.91658 -2.44223,-1.24356 -4.87245,-0.94747 -2.60675,0.31759 -4.67788,-0.15422 -6.96088,-1.58571 -4.97325,-3.11834 -4.10778,-6.67908 1.75874,-7.23587 4.29685,-0.40781 4.85896,-3.17398 0.74126,-3.64777 -3.23319,-0.37202 -3.13633,-0.0147 -1.23658,-4.56146 1.27524,-3.05206 1.99852,-3.62212 4.59571,-3.62212 4.22987,0 8.71506,2.86238 9.31365,5.94382 1.5031,7.73771 1.73858,14.15683 0.57094,15.56374 -1.54195,1.85794 -2.42803,1.87898 -3.91039,0.0928 z m 230.37555,0.33307 c -0.36253,-0.58659 -0.4085,-1.31719 -0.10214,-1.62354 0.82264,-0.82264 3.64326,0.46152 3.64326,1.65869 0,1.35725 -2.69711,1.33048 -3.54112,-0.0351 z m 15.02261,0.0366 c -0.38897,-0.62937 -0.25173,-1.59981 0.30498,-2.15652 1.29709,-1.29709 5.44711,-0.0191 4.94025,1.52133 -0.5219,1.58614 -4.36954,2.05209 -5.24523,0.63519 z m 8.82685,-2.16451 c -2.82686,-1.36606 -3.58088,-3.42777 -2.19838,-6.011 1.07947,-2.01701 1.15468,-1.99962 3.55732,0.82244 1.60374,1.88371 2.63407,2.45438 2.9725,1.6464 0.28488,-0.68014 1.3309,-2.24055 2.32448,-3.46757 1.54643,-1.90977 2.03896,-2.03803 3.42112,-0.89093 2.30197,1.91046 1.99517,5.71517 -0.60789,7.53842 -2.52878,1.77123 -6.25822,1.9139 -9.46915,0.36224 z M 99.542705,282.0691 c -0.316431,-0.512 -0.117988,-1.21356 0.440983,-1.55902 0.558972,-0.34546 1.016312,0.0734 1.016312,0.9309 0,1.75653 -0.60006,2.01516 -1.457295,0.62812 z m 10.897985,-0.16506 c -0.99254,-1.60596 2.272,-4.59135 3.58495,-3.2784 0.57196,0.57196 0.75203,1.79017 0.40015,2.70714 -0.72587,1.89161 -2.97024,2.21333 -3.9851,0.57126 z M 288.5,278 c -0.33992,-0.55 0.0835,-1 0.94098,-1 0.85746,0 1.55902,0.45 1.55902,1 0,0.55 -0.42344,1 -0.94098,1 -0.51754,0 -1.2191,-0.45 -1.55902,-1 z m 93.51494,-1.95384 c -1.36678,-1.05016 -2.19333,-2.20111 -1.83676,-2.55767 0.7776,-0.7776 5.82182,2.36453 5.82182,3.62652 0,1.36228 -1.26117,1.02402 -3.98506,-1.06885 z m 18.43121,-3.13329 c -1.35263,-2.1886 1.18899,-2.97352 3.03247,-0.9365 1.78314,1.97035 1.77617,2.02363 -0.26462,2.02363 -1.15278,0 -2.39831,-0.48921 -2.76785,-1.08713 z m 5.19333,-3.60672 C 404.30867,267.97534 404.98759,263 406.5,263 c 0.99331,0 1.5,0.99344 1.5,2.94098 0,2.93548 -1.15031,4.57537 -2.36052,3.36517 z m 10.04802,-1.95198 C 415.30937,266.97604 415,265.58367 415,264.26001 c 0,-1.75378 0.47474,-2.31523 1.75,-2.06964 1.08766,0.20946 1.75,1.2465 1.75,2.73999 0,2.40581 -1.5203,3.716 -2.8125,2.42381 z M 245.353,262.47753 c -1.03789,-2.7047 1.00173,-4.9517 4.74785,-5.2306 1.86953,-0.13918 5.92052,-0.97791 9.00219,-1.86383 4.38987,-1.262 6.07112,-1.36026 7.76484,-0.45381 1.81284,0.9702 2.25175,0.86751 2.71911,-0.63617 0.30652,-0.98621 0.99118,-2.46812 1.52147,-3.29312 0.53028,-0.825 1.49647,-2.7375 2.14708,-4.25 1.34925,-3.13663 2.8857,-3.4659 5.23066,-1.12094 1.50541,1.5054 1.4539,1.71588 -0.67857,2.77299 -1.66545,0.82559 -2.39274,2.15993 -2.61346,4.79483 -0.1682,2.00799 -0.8432,4.0608 -1.5,4.56179 -1.25744,0.95915 -9.55541,2.91148 -18.10923,4.26071 -2.79672,0.44113 -6.09197,1.11829 -7.32279,1.5048 -1.63841,0.51449 -2.41766,0.23414 -2.90915,-1.04665 z m -35.31782,-4.41179 c -2.89222,-5.40417 0.5046,-19.73463 5.25574,-22.17283 1.21499,-0.62352 3.81394,-2.95712 5.77544,-5.1858 4.0671,-4.62108 5.93364,-4.33747 5.93364,0.90157 0,3.73186 1.85305,7.99219 5.64821,12.98571 1.29349,1.70192 2.35179,3.81286 2.35179,4.69098 0,2.40625 -2.14238,3.2404 -3.51195,1.36741 -1.79848,-2.45958 -3.06628,-2.03281 -5.32284,1.79178 C 224.03227,256.05963 217.3474,260 213.34735,260 c -1.25234,0 -2.74282,-0.87042 -3.31217,-1.93426 z m 148.11015,-0.20768 c -2.58628,-0.95673 -2.85193,-4.50085 -0.39533,-5.27417 4.47083,-1.40738 19.70364,-3.57469 21.38155,-3.04214 1.27981,0.4062 2.06176,0.0166 2.45408,-1.2228 1.43029,-4.51847 4.66213,-10.31605 5.73452,-10.28715 1.55129,0.0418 4.67985,2.44268 4.67985,3.59131 0,0.49645 -1.0125,1.34684 -2.25,1.88976 -1.76332,0.77361 -2.25,1.80606 -2.25,4.77318 0,4.65468 -0.97358,5.307 -9.97394,6.68279 -3.86433,0.5907 -9.32316,1.66098 -12.13073,2.37841 -2.95035,0.75391 -6.01006,0.96949 -7.25,0.51081 z m -35.7568,-5.38784 c -1.28243,-1.95724 -1.53912,-4.00536 -1.13421,-9.04978 0.48605,-6.0551 0.35303,-6.63161 -1.86548,-8.08523 C 318.07498,234.47433 317,232.86376 317,231.75616 c 0,-1.83634 0.43738,-1.9558 4.96274,-1.35549 4.90335,0.65045 5.01376,0.60412 9.22517,-3.87117 5.24869,-5.57757 7.81209,-5.95121 7.81209,-1.1387 0,3.74844 2.30024,9.45959 5.75,14.27635 2.64892,3.69859 2.76304,4.66217 0.75,6.33285 -1.10304,0.91544 -1.85209,0.95268 -2.83043,0.14073 -1.02011,-0.84662 -2.0114,-0.37928 -4.25,2.00366 -3.02735,3.22254 -9.63938,6.79541 -12.64652,6.83365 -0.94982,0.0121 -2.47285,-1.11644 -3.38452,-2.50782 z M 107.13922,251.98145 C 104.28529,249.58609 95.819021,249.31685 92,251.5 c -3.708535,2.11999 -9.344913,1.88134 -11.487684,-0.48639 -1.737661,-1.92009 -1.704448,-2.19544 0.99514,-8.25 3.135706,-7.03267 3.832306,-7.72661 7.778081,-7.7483 2.35097,-0.0129 3.09201,-0.73028 4.75,-4.59822 C 95.115992,227.8965 96,224.9715 96,223.91709 c 0,-2.33479 1.788558,-2.45392 4.83248,-0.32187 2.69386,1.88685 2.4813,4.90043 -0.34583,4.90298 -1.72873,0.002 -2.007748,0.73634 -2.149156,5.65968 -0.137858,4.79972 0.201824,6.00015 2.239526,7.91447 2.25284,2.11644 2.51625,2.15321 4.24124,0.59212 1.83773,-1.66312 7.13204,-2.33206 7.23758,-0.91447 0.89558,12.0294 -0.15922,14.22444 -4.91662,10.23145 z m 64.52745,1.35188 c -1.55192,-1.55192 -0.55503,-5.06317 1.73356,-6.10592 1.32013,-0.60149 2.67013,-0.82372 3,-0.49385 1.18151,1.18151 0.56734,3.98582 -1.22897,5.61145 -2.02115,1.82912 -2.52243,1.97049 -3.50459,0.98832 z m 9,-4 c -1.32867,-1.32866 -0.59315,-2.14559 3.35357,-3.72475 5.46277,-2.18577 9.22798,-2.13597 8.79423,0.1163 -0.5964,3.09683 -9.89679,5.85947 -12.1478,3.60845 z m -41.34341,-3.76315 c -4.90514,-2.28383 -5.21321,-2.6535 -5.87191,-7.04602 -0.56477,-3.76614 -0.34158,-5.04732 1.18983,-6.82994 1.03675,-1.20682 2.72648,-3.76922 3.75497,-5.69422 1.02848,-1.925 2.52297,-4.02731 3.32108,-4.67179 1.22774,-0.99141 1.03687,-1.44323 -1.23991,-2.93503 -2.34899,-1.53912 -2.62534,-2.25295 -2.17422,-5.6163 0.28424,-2.11919 1.27056,-5.00346 2.19182,-6.40947 l 1.67501,-2.55639 2.33463,2.19326 c 2.37469,2.23091 3.85446,5.30413 4.93305,10.2451 0.37396,1.71309 2.01205,3.64066 4.34597,5.114 5.38201,3.39751 5.93963,4.38086 6.73317,11.87383 0.6064,5.72589 0.46915,6.83097 -0.91436,7.36187 -0.89532,0.34357 -2.22236,0.13128 -2.94898,-0.47176 -1.01733,-0.84431 -2.24774,-0.0652 -5.35086,3.38812 -2.21635,2.46651 -4.65362,4.48016 -5.41614,4.47479 -0.76253,-0.005 -3.71594,-1.0944 -6.56315,-2.42005 z M 146.5,222 c -0.33992,-0.55 -1.04148,-1 -1.55902,-1 -0.51754,0 -0.94098,0.45 -0.94098,1 0,0.55 0.70156,1 1.55902,1 0.85746,0 1.2809,-0.45 0.94098,-1 z m 50.20885,24.37552 c -0.38987,-0.38987 -0.71656,-1.42135 -0.72599,-2.29219 -0.0221,-2.04434 4.2743,-10.99361 5.30232,-11.04448 1.58178,-0.0783 5.71482,3.23128 5.71482,4.57616 0,0.81066 -1.03671,1.38499 -2.5,1.38499 -1.375,0 -2.54434,0.5625 -2.59854,1.25 -0.0542,0.6875 -0.1667,2.375 -0.25,3.75 -0.14958,2.4689 -3.32369,3.99444 -4.94261,2.37552 z m 97.90067,-2.19831 c -0.69084,-1.11781 3.59896,-4.51417 7.05632,-5.58669 2.97895,-0.92411 4.00686,1.18122 1.70204,3.48604 -2.21916,2.21917 -7.85038,3.56979 -8.75836,2.10065 z M 402,241 c 0,-1.94919 1.06067,-2.606 2.26443,-1.40223 C 405.06555,240.39888 404.01705,243 402.89301,243 402.40186,243 402,242.1 402,241 z m -94.23774,-0.80113 c -0.85737,-3.27858 0.63516,-9.69887 2.2547,-9.69887 2.25154,0 2.11917,10.8501 -0.13767,11.28473 -0.92265,0.17769 -1.83447,-0.50535 -2.11703,-1.58586 z m 124.94946,-0.82049 C 432.32027,238.98694 432,237.86676 432,236.8891 c 0,-0.97767 -1.0396,-2.98617 -2.31021,-4.46335 l -2.31021,-2.68579 1.91954,-3.87973 c 1.86074,-3.7609 6.35629,-7.86023 8.61995,-7.86023 0.61068,0 1.93436,1.35501 2.94151,3.01114 1.81543,2.98523 1.80702,3.06053 -0.97664,8.75 -3.30972,6.76469 -6.1783,10.61116 -7.17222,9.61724 z M 416.2,234.8 c -1.77204,-1.77204 -1.46041,-3.58257 0.73664,-4.27989 1.06516,-0.33807 2.07766,-1.6013 2.25,-2.80717 0.17235,-1.20588 1.10086,-2.3426 2.06336,-2.52605 2.23971,-0.42687 2.43025,4.00366 0.25,5.81311 -0.825,0.68469 -1.5,2.08979 -1.5,3.12244 0,2.12243 -1.99874,2.47882 -3.8,0.67756 z M 113,224.5 c 0,-0.825 0.45,-1.5 1,-1.5 0.55,0 1,0.675 1,1.5 0,0.825 -0.45,1.5 -1,1.5 -0.55,0 -1,-0.675 -1,-1.5 z m 12.17668,-6.05282 c 0.45227,-2.17211 2.22702,-2.30502 2.63295,-0.19718 0.2108,1.0946 -0.27967,1.75 -1.30963,1.75 -0.96073,0 -1.51197,-0.64684 -1.32332,-1.55282 z m 182.80326,-1.97135 c -0.69572,-0.83829 -0.95423,-1.83487 -0.57448,-2.21463 0.83409,-0.83408 3.82031,0.9161 4.36835,2.56024 0.56969,1.70906 -2.30606,1.44709 -3.79387,-0.34561 z M 130,213.11803 c 0,-1.1 0.45,-2.27811 1,-2.61803 0.55,-0.33992 1,0.28197 1,1.38197 0,1.1 -0.45,2.27811 -1,2.61803 -0.55,0.33992 -1,-0.28197 -1,-1.38197 z M 423.5,213 c -0.33992,-0.55 -0.14148,-1 0.44098,-1 0.58246,0 1.05902,0.45 1.05902,1 0,0.55 -0.19844,1 -0.44098,1 -0.24254,0 -0.7191,-0.45 -1.05902,-1 z m 11.66585,-1.06029 c 0.18378,-1.25568 0.93452,-2.48092 1.6683,-2.72276 0.9065,-0.29877 1.22704,0.29208 1,1.84334 -0.18378,1.25568 -0.93452,2.48092 -1.6683,2.72276 -0.9065,0.29877 -1.22704,-0.29208 -1,-1.84334 z M 70.151313,208.25 c -0.50548,-0.9625 -1.223,-3.58634 -1.594488,-5.83076 -0.598679,-3.61703 -0.339007,-4.4409 2.28508,-7.25 C 72.559934,193.33009 74.799637,192 76.178525,192 c 1.405111,0 3.486883,-1.26586 5.094267,-3.09767 l 2.718161,-3.09768 4.254524,2.45603 c 2.339987,1.35081 5.602006,2.78094 7.248929,3.17807 C 99.513496,192.40787 101,193.78787 101,196.54986 101,198.86521 96.83325,203 94.5,203 c -0.676655,0 -2.515636,1.0125 -4.086623,2.25 -6.025185,4.74617 -18.384033,6.57602 -20.262064,3 z M 202.5,206 c -0.75571,-1.22276 0.27492,-3.0652 2.68879,-4.8067 2.765,-1.99482 2.34644,-4.36574 -0.63847,-3.61657 -1.8008,0.45197 -3.09783,-0.0333 -4.89664,-1.83214 -2.08371,-2.08372 -2.43835,-3.36145 -2.38893,-8.60727 0.0355,-3.76564 0.56265,-6.57912 1.35619,-7.2377 2.40024,-1.99201 17.63313,-0.97888 19.93809,1.32607 0.22031,0.22032 0.6935,4.21139 1.05151,8.86904 l 0.65094,8.46845 -3.60016,2.74598 c -3.1405,2.39537 -3.86833,2.58286 -5.70048,1.46841 -1.85864,-1.13057 -2.3555,-0.96114 -4.31814,1.47243 -2.3948,2.96943 -3.18321,3.30248 -4.1427,1.75 z m 44.92354,-0.33866 C 246.56467,203.42316 247.7488,202 250.46992,202 c 1.29354,0 5.13956,-0.86762 8.54671,-1.92804 6.21453,-1.93418 8.9966,-1.84576 8.96806,0.28503 -0.0391,2.92017 -2.15523,4.08545 -8.67067,4.7747 -3.74771,0.39646 -7.82105,1.03007 -9.05187,1.40802 -1.56784,0.48145 -2.41771,0.21847 -2.83861,-0.87837 z m 24.23367,-6.11225 c -1.00578,-2.62103 1.15552,-6.48658 3.65316,-6.53378 0.4457,-0.008 0.6707,1.66845 0.5,3.72637 -0.32687,3.94062 -3.01978,5.76095 -4.15316,2.80741 z m 69.49729,-2.10106 c 0.19002,-0.98026 0.95098,-1.98391 1.691,-2.23033 0.86063,-0.28658 1.221,0.19425 1,1.33427 -0.19002,0.98026 -0.95098,1.98391 -1.691,2.23033 -0.86063,0.28658 -1.221,-0.19425 -1,-1.33427 z M 146,194.5651 c 0,-1.8892 -0.43738,-4.5853 -0.97196,-5.99134 -0.869,-2.28565 -1.23298,-2.43751 -3.43623,-1.43364 C 137.94573,188.80139 136,187.61528 136,183.73138 136,179.85825 137.49683,178 140.61667,178 c 1.21916,0 2.40544,-0.5625 2.63617,-1.25 0.23072,-0.6875 1.9454,-1.25 3.8104,-1.25 2.43085,0 3.48893,-0.49547 3.73715,-1.75 0.25283,-1.27782 -0.3031,-1.75 -2.0604,-1.75 -3.51727,0 -3.79892,-0.7858 -1.61085,-4.49431 2.59764,-4.40266 4.24216,-4.87738 9.23909,-2.667 l 4.17896,1.84855 1.20439,8.26327 c 1.48779,10.20773 -0.1689,14.86636 -3.75158,10.54949 -2.50856,-3.02263 -5,-1.17211 -5,3.71375 C 153,191.9857 149.17935,198 147.41844,198 146.46915,198 146,196.8639 146,194.5651 z m 25.3755,1.97105 c -1.09881,-2.86344 2.09202,-4.74397 10.2941,-6.06687 6.49139,-1.04698 8.07221,-1.03267 9.2445,0.0837 3.02734,2.88294 -2.34147,5.74229 -13.15186,7.00448 -4.85539,0.5669 -5.83756,0.40985 -6.38674,-1.02131 z m 131.13879,-1.74816 c -1.09214,-0.63315 -3.65483,-1.0527 -5.69488,-0.93233 -2.92504,0.17259 -3.95732,-0.24483 -4.88303,-1.97453 -0.98905,-1.84805 -0.85728,-2.44434 0.83692,-3.78726 1.10593,-0.87663 2.74592,-3.05637 3.64442,-4.84387 1.94055,-3.86058 2.20916,-3.91871 4.62078,-1 l 1.85909,2.25 2.63824,-2.80022 c 2.23437,-2.37155 2.87824,-2.60117 4.20611,-1.5 2.25142,1.86708 4.45231,7.63121 3.53698,9.26338 -0.63679,1.13551 -7.85408,6.61282 -8.57333,6.50643 -0.11307,-0.0167 -1.09916,-0.54844 -2.1913,-1.1816 z M 108,193 c 0,-0.55 0.45,-1 1,-1 0.55,0 1,0.45 1,1 0,0.55 -0.45,1 -1,1 -0.55,0 -1,-0.45 -1,-1 z m 168.2,-1.2 c -0.66,-0.66 -1.2,-1.56 -1.2,-2 0,-1.31371 3.66761,-0.90543 4.86888,0.54201 1.99686,2.40607 -1.37918,3.74769 -3.66888,1.45799 z m -166.18469,-8.93342 c 0.0259,-4.00378 1.19314,-4.6581 8.95358,-5.01912 6.26812,-0.2916 7.52197,-0.0863 7.79909,1.27671 0.36865,1.81326 -1.36831,2.75879 -7.26798,3.95638 -2.2,0.44658 -5.2375,1.11361 -6.75,1.48229 -2.41649,0.58902 -2.74814,0.38331 -2.73469,-1.69626 z m 285.36873,-0.30817 c -0.99485,-2.59253 0.0919,-5.05206 2.37618,-5.37796 2.71398,-0.38721 3.11949,2.79698 0.66835,5.24812 -1.9378,1.9378 -2.3441,1.95513 -3.04453,0.12984 z m 27.18739,-1.12984 C 421.70714,180.56429 421,178.9597 421,177.86283 c 0,-1.09687 -0.43552,-2.80809 -0.96782,-3.8027 -2.10023,-3.92431 6.99779,-7.58096 11.50846,-4.62546 3.37003,2.20813 3.44738,8.2885 0.14491,11.39102 -2.71514,2.55074 -6.8901,2.82691 -9.11412,0.60288 z m -197.95642,-2.89339 c -0.88826,-1.35565 -1.61501,-2.93065 -1.61501,-3.5 0,-1.35787 4.87487,-1.32336 8.85078,0.0626 3.56319,1.24213 4.08468,3.33116 1.21496,4.86699 -3.3291,1.78168 -6.72277,1.20756 -8.45073,-1.42964 z m 110.61416,0.27732 C 335.84724,176.95828 338,176.65074 338,178.41667 338,179.2875 337.2875,180 336.41667,180 c -0.87084,0 -1.40521,-0.53438 -1.1875,-1.1875 z M 334,171.51905 c 0,-1.64815 4.26746,-3.08982 5.99172,-2.02417 0.79937,0.49404 0.7812,1.0738 -0.0656,2.09415 -1.5697,1.89137 -5.92611,1.83993 -5.92611,-0.07 z m -194.58405,-0.87748 c -0.94796,-2.47034 -0.0293,-5.09235 1.91536,-5.46686 1.49394,-0.2877 1.75274,0.21851 1.48852,2.91151 -0.34267,3.4925 -2.44005,5.06704 -3.40388,2.55535 z m 159.44483,-2.55549 c -1.29843,-1.05266 -2.03732,-2.23861 -1.64199,-2.63546 0.86035,-0.86363 5.78121,2.17716 5.78121,3.57243 0,1.51311 -1.54983,1.16228 -4.13922,-0.93697 z m 32.8279,-5.04421 c -2.41208,-2.8666 -2.49455,-3.30159 -1.28969,-6.80215 1.35157,-3.92681 4.72836,-6.42579 8.10101,-5.99511 1.65801,0.21172 2.04436,1.11038 2.25944,5.25539 0.4893,9.42998 -4.20076,13.32953 -9.07076,7.54187 z M 316.5,164 c -0.33992,-0.55 -0.14148,-1 0.44098,-1 0.58246,0 1.05902,0.45 1.05902,1 0,0.55 -0.19844,1 -0.44098,1 -0.24254,0 -0.7191,-0.45 -1.05902,-1 z m 90.62446,-0.0657 c -2.14354,-0.86875 -2.31119,-1.37643 -1.71667,-5.19855 0.68174,-4.38281 2.93328,-7.00934 5.57287,-6.501 1.15687,0.22279 1.51934,1.71748 1.51934,6.26521 0,6.46037 -0.81385,7.28311 -5.37554,5.43434 z M 322,158.41667 c 0,-2.11111 0.44167,-3.43611 1.075,-3.225 0.59125,0.19708 1.04125,0.68458 1,1.08333 -0.0412,0.39875 -0.075,1.85 -0.075,3.225 0,1.375 -0.45,2.5 -1,2.5 -0.55,0 -1,-1.6125 -1,-3.58333 z m 95.66378,-0.85047 c -0.3355,-0.87429 0.44366,-2.7336 1.80316,-4.30287 1.91575,-2.21136 2.6465,-2.51467 3.65835,-1.51848 0.9123,0.89819 0.99569,2.01211 0.29944,4 -1.08353,3.09362 -4.81949,4.27476 -5.76095,1.82135 z M 430,157 c 0,-0.55 0.45,-1 1,-1 0.55,0 1,0.45 1,1 0,0.55 -0.45,1 -1,1 -0.55,0 -1,-0.45 -1,-1 z m -35.68751,-2.91303 c -0.64611,-2.47072 -2.7617,-2.63288 -7.65825,-0.58697 -5.51263,2.30333 -10.69082,1.84576 -18.04197,-1.59426 -7.35367,-3.4412 -9.19645,-6.61312 -3.18703,-5.48574 3.07172,0.57626 3.69869,0.28407 6.07461,-2.83092 1.84838,-2.42335 3.59196,-3.56655 5.76715,-3.78129 2.49953,-0.24676 3.28228,-0.90268 3.94736,-3.30779 0.45627,-1.65 2.61047,-5.01816 4.7871,-7.4848 3.47161,-3.93414 4.13188,-4.30249 5.37759,-3 0.78104,0.81664 1.71665,2.90463 2.07914,4.63997 0.54715,2.61942 0.19594,3.5846 -2.06842,5.68423 l -2.72748,2.52906 2.80462,3.81577 c 1.54254,2.09867 4.20602,5.0302 5.91885,6.51451 2.58098,2.23663 2.92465,3.00718 2.00706,4.5 -1.63059,2.65278 -4.43215,2.86687 -5.08033,0.38823 z m -119.64582,-4.75364 c -0.97814,-0.97813 -0.81246,-4.12519 0.25179,-4.78294 1.94578,-1.20256 18.27086,-3.54098 20.6143,-2.95281 1.9923,0.50003 2.46724,0.2432 2.46724,-1.33418 0,-1.07439 0.85953,-2.73129 1.91006,-3.68201 1.05054,-0.95072 2.18411,-2.82046 2.51906,-4.15499 0.73519,-2.92926 1.61599,-3.02352 4.7101,-0.50408 l 2.36078,1.92232 -2.75,1.05293 c -2.25483,0.86334 -2.75,1.66555 -2.75,4.45523 0,1.87127 -0.5625,3.82842 -1.25,4.34923 -1.80414,1.3667 -12.19432,4.15413 -19.75,5.29844 -7.77738,1.17788 -7.49942,1.16678 -8.33333,0.33286 z m -36,-3 c -1.1348,-1.1348 -0.73409,-13.14283 0.58333,-17.48062 0.89486,-2.94645 2.30731,-4.78714 4.9715,-6.47881 2.04683,-1.29966 4.39269,-3.66093 5.21302,-5.24728 1.22513,-2.36914 3.37256,-4.12662 5.04223,-4.12662 0.17225,0 0.54177,1.6875 0.82116,3.75 0.74882,5.52789 4.26045,14.42334 6.10032,15.45298 1.86884,1.04586 2.14406,5.34383 0.41079,6.41505 -0.65504,0.40484 -1.36754,0.2064 -1.58334,-0.44098 -0.70486,-2.11459 -3.02596,-1.24214 -5.90288,2.21874 -3.94968,4.7514 -13.29724,8.29644 -15.65613,5.93754 z m 106.80356,-2.39089 C 343.39283,139.92518 344.18312,138 347.9096,138 c 3.48529,0 5.08514,1.86381 2.7308,3.18137 -0.90222,0.5049 -1.6404,1.76909 -1.6404,2.8093 0,3.24118 -1.84176,3.21601 -3.52977,-0.0482 z m 80.70102,0.38877 c 0.19398,-1.01731 1.38422,-1.97842 2.67793,-2.16242 1.80292,-0.25642 2.2499,0.0823 1.97957,1.5 -0.19398,1.01731 -1.38422,1.97842 -2.67793,2.16242 -1.80292,0.25642 -2.2499,-0.0823 -1.97957,-1.5 z M 121.50327,140.75 c 0.40509,-1.2375 0.79508,-4.23526 0.86663,-6.66169 0.12535,-4.25046 2.6301,-7.41855 2.6301,-3.32663 0,1.06059 0.9,2.74283 2,3.73832 2.5875,2.34165 2.52191,3.66107 -0.31445,6.32569 -3.18371,2.99094 -6.17185,2.9473 -5.18228,-0.0757 z m 13.6929,-3.04761 c -5.01043,-5.16944 -4.02396,-10.09305 1.90869,-9.52657 3.30315,0.3154 3.40927,0.46466 3.91678,5.50926 0.85292,8.478 -0.55857,9.45138 -5.82547,4.01731 z M 201,137.12244 c 0,-2.53804 2.73988,-4.78256 4.13502,-3.38742 0.73368,0.73368 0.7103,1.68548 -0.0776,3.15762 -1.39893,2.61392 -4.05746,2.7645 -4.05746,0.2298 z m 9.54949,-2.04237 c -0.72006,-1.16507 4.18348,-5.08516 6.33537,-5.06476 0.88833,0.008 2.27225,0.43095 3.07538,0.93895 1.2497,0.79047 1.19131,1.2208 -0.40499,2.98469 -1.92802,2.13044 -7.92472,2.89028 -9.00576,1.14112 z m 107.78634,-0.64729 c -0.7217,-1.88073 1.04795,-3.93166 2.57704,-2.98663 1.6483,1.01871 1.30343,4.55385 -0.44425,4.55385 -0.84227,0 -1.80202,-0.70525 -2.13279,-1.56722 z m -92.8291,-1.78216 c -1.53263,-2.3391 -1.47675,-2.74478 1.04168,-7.56117 2.92749,-5.59872 3.76906,-5.95356 7.43665,-3.13561 2.6834,2.06177 2.1286,3.54616 -1.32542,3.54616 -1.8915,0 -2.15964,0.55627 -2.15964,4.48033 0,5.33601 -2.40419,6.62172 -4.99327,2.67029 z m -53.6007,-0.11471 c -8.34313,-3.07165 -9.74284,-4.26485 -10.43757,-8.89769 -0.87517,-5.83603 1.30359,-10.07785 5.96684,-11.61687 1.90855,-0.62988 4.76461,-2.75889 6.34681,-4.73114 l 2.87672,-3.58592 4.62163,1.76502 c 5.93191,2.26542 8.15089,4.67591 7.32684,7.95921 -0.34636,1.38001 -0.16868,4.56648 0.39485,7.08105 1.09571,4.8893 0.0787,8.49043 -2.39779,8.49043 -0.7289,0 -2.98305,1.125 -5.00922,2.5 -4.15716,2.82112 -4.68644,2.87771 -9.68911,1.03591 z M 349,132.46693 c 0,-0.58681 0.51285,-1.57978 1.13966,-2.20659 0.85289,-0.85289 0.49282,-1.9084 -1.4309,-4.19461 -3.1461,-3.73893 -4.07734,-6.46106 -3.28725,-9.60904 0.69312,-2.76159 2.55175,-3.91783 7.82922,-4.87051 3.37231,-0.60877 3.86964,-0.41611 4.92927,1.90953 0.99072,2.17439 0.83123,3.30147 -1.00073,7.0722 -2.32408,4.78365 -2.81531,8.92096 -1.17927,9.93209 2.48827,1.53783 0.86135,3.24 -3,3.13875 -2.2,-0.0577 -4,-0.58501 -4,-1.17182 z m 62.18045,-4.58555 c 0.40077,-2.65714 10.64541,-6.20727 15.49238,-5.36866 2.60542,0.45078 3.29159,0.17476 3.83693,-1.54348 1.18894,-3.74601 4.95293,-8.88357 6.54024,-8.92691 1.64857,-0.045 3.95,1.80919 3.95,3.18242 0,0.45361 -1.1737,1.27099 -2.60822,1.81639 -2.30241,0.87538 -2.53463,1.38385 -1.98066,4.33676 0.41817,2.22904 0.18261,3.71439 -0.70602,4.45188 -2.03333,1.68752 -13.55106,4.13884 -19.52465,4.15544 -4.85643,0.0135 -5.29173,-0.16967 -5,-2.10384 z m -79.51378,-0.54805 C 330.34738,126.01405 331.03696,124 332.80794,124 c 1.31254,0 2.06607,-1.16454 2.75,-4.25 0.5968,-2.69242 1.4918,-4.25 2.44206,-4.25 2.11531,0 2.54415,5.80351 0.55107,7.45762 -0.85309,0.708 -1.55107,2.13217 -1.55107,3.16482 0,1.3003 -0.71739,1.87756 -2.33333,1.87756 -1.28334,0 -2.63334,-0.3 -3,-0.66667 z M 118.43626,114.41131 c 1.0464,-5.68941 2.09437,-6.23518 5.57304,-2.9024 3.44069,3.29639 3.41152,4.92893 -0.0917,5.12954 -1.32971,0.0761 -3.26885,0.48624 -4.3092,0.91131 -1.72764,0.70588 -1.82922,0.43392 -1.17219,-3.13845 z M 135,114.07332 C 135,112.933 135.1882,112 135.41821,112 c 0.23002,0 1.16962,-0.28834 2.088,-0.64076 1.31662,-0.50523 1.5983,-0.13726 1.33179,1.73979 -0.43383,3.05545 -3.838,3.91962 -3.838,0.97429 z m 246.91768,-3.1242 c -1.07269,-0.66295 -1.12577,-1.14103 -0.22654,-2.04026 1.25662,-1.25662 4.30886,-0.58171 4.30886,0.95277 0,1.39975 -2.49965,2.06563 -4.08232,1.08749 z M 149.25,108.33772 C 147.04736,107.44894 147.87467,105 150.37756,105 c 2.48219,0 5.08517,2.20394 3.9471,3.34201 -0.74708,0.74707 -3.21776,0.74499 -5.07466,-0.004 z m 16.36869,-2.771 c -4.79338,-6.284447 -2.65847,-14.58335 2.55657,-9.938001 3.24531,2.89079 4.99033,7.805561 3.84293,10.823451 -1.31959,3.47077 -3.28419,3.19894 -6.3995,-0.88545 z m 172.59058,-1.13269 C 336.99417,103.58294 336,102.46211 336,101.9433 c 0,-1.38758 2.21934,-1.09196 4.44625,0.59225 2.81556,2.12939 0.68012,3.94169 -2.23698,1.89848 z M 207,104 c 0,-0.55 0.45,-1 1,-1 0.55,0 1,0.45 1,1 0,0.55 -0.45,1 -1,1 -0.55,0 -1,-0.45 -1,-1 z m 144.62385,-0.53785 c -0.33982,-0.88556 0.0573,-1.78628 0.93614,-2.12354 1.95661,-0.75083 2.84947,0.15198 2.09493,2.11826 -0.75909,1.97817 -2.27299,1.9808 -3.03107,0.005 z M 382,103.39829 c 0,-0.40744 0.78359,-1.60667 1.74131,-2.66494 1.66623,-1.841156 1.63389,-2.008568 -0.75,-3.882392 -5.98937,-4.707873 -5.80851,-4.382059 -4.97196,-8.956797 C 378.85229,83.339208 381.84527,80 385.09501,80 c 1.03039,0 3.29976,1.274418 5.04304,2.832041 l 3.1696,2.83204 -2.6439,4.91796 C 389.20961,93.286918 387.65956,97.3 387.2192,99.5 c -0.61163,3.05566 -1.32222,4.07544 -3.00992,4.31955 C 382.99417,103.9953 382,103.80574 382,103.39829 z m -229,-2.77585 c 0,-2.27409 2.52177,-5.434002 3.53111,-4.424663 0.26553,0.265528 0.1984,1.904654 -0.14917,3.642501 C 155.64405,103.52973 153,104.14124 153,100.62244 z m 211.59656,-4.466209 c -0.34605,-0.559919 -0.1419,-1.31919 0.45366,-1.687268 1.53748,-0.950218 2.52947,0.35135 1.24598,1.634836 -0.71818,0.71818 -1.27752,0.735435 -1.69964,0.05243 z M 369.18963,90.3273 C 369.63544,85.051911 372,84.706416 372,89.916667 372,92.949839 371.5987,94 370.43963,94 c -1.18692,0 -1.48608,-0.878992 -1.25,-3.6727 z M 169.60521,86.170231 c -0.39093,-0.632541 -0.62071,-4.553289 -0.51062,-8.712773 0.21577,-8.15219 -0.86087,-10.726241 -3.55221,-8.492632 C 164.69407,69.668861 164,71.034689 164,72 c 0,0.965311 -0.675,2.315311 -1.5,3 -3.48687,2.893841 -6.37718,-4.979968 -3.04954,-8.307598 0.79775,-0.79775 3.39157,-1.741544 5.76406,-2.09732 3.15568,-0.473224 6.1575,-2.116309 11.18268,-6.120974 C 180.17519,55.463349 183.88136,53 184.63314,53 185.51418,53 186,54.178716 186,56.316341 c 0,1.823987 0.46738,5.844606 1.03861,8.93471 0.88277,4.775348 0.76906,6.190844 -0.75787,9.433659 -1.54365,3.278333 -2.27623,3.829364 -5.20526,3.91529 -2.72157,0.07984 -4.14974,0.968933 -7.08414,4.410152 -2.36429,2.772657 -3.92889,3.899904 -4.38613,3.160079 z m 63.69147,-1.816606 c -0.98817,-1.455506 -3.90903,-4.765581 -6.49079,-7.355722 -3.47566,-3.486938 -4.55325,-5.24799 -4.15145,-6.784477 0.70727,-2.704616 7.31044,-5.370449 11.31739,-4.569059 2.58055,0.516109 3.02817,0.303572 3.02817,-1.437808 0,-1.256531 1.34733,-2.876137 3.49874,-4.205783 3.36322,-2.078582 3.6828,-2.100966 8.25,-0.577857 2.6132,0.871468 6.06273,2.63444 7.66563,3.917716 2.6181,2.09603 2.89532,2.871616 2.72693,7.629114 C 258.91454,77.376519 258.5812,78 255.38255,78 c -1.68889,0 -3.8275,1.459298 -6.59478,4.5 -3.7672,4.139413 -4.47995,4.5 -8.89488,4.5 -4.071,0 -5.07224,-0.401695 -6.59621,-2.646375 z m 80.06409,0.144139 c -1.01228,-2.637954 0.42386,-5.827528 5.73982,-12.747764 5.32074,-6.926458 6.97543,-7.763645 10.32955,-5.226233 1.69315,1.280877 2.12974,1.279522 3.5558,-0.01104 1.01034,-0.914348 4.87635,-1.72107 10.21395,-2.13135 l 8.58828,-0.660148 0.41722,5.389386 c 0.22947,2.964162 0.22898,5.951886 -0.001,6.639386 -0.56694,1.69423 -2.73611,1.575344 -4.56145,-0.25 -0.825,-0.825 -1.82617,-1.5 -2.22481,-1.5 -0.39864,0 -3.12427,2.269318 -6.05696,5.042928 -4.35292,4.116817 -5.66886,4.862729 -7.16561,4.061692 -2.1417,-1.146206 -11.63197,-0.05662 -14.87974,1.708359 -2.81933,1.53215 -3.25953,1.497065 -3.95497,-0.315215 z M 385,75.5 c 0,-0.825 0.45,-1.5 1,-1.5 0.55,0 1,0.675 1,1.5 0,0.825 -0.45,1.5 -1,1.5 -0.55,0 -1,-0.675 -1,-1.5 z m -9.60646,-11.916842 c -0.33414,-0.870737 -0.30223,-2.370658 0.0709,-3.333158 0.63104,-1.627811 0.7791,-1.613179 2.12047,0.209563 0.79313,1.07776 1.29537,2.399635 1.11608,2.9375 -0.57001,1.710014 -2.67716,1.828575 -3.30744,0.186095 z M 388,62.691996 c 0,-3.318738 2.31371,-5.223856 3.9499,-3.252366 1.77931,2.143936 0.86759,5.012159 -1.71012,5.379921 C 388.4432,65.07587 388,64.654875 388,62.691996 z M 197.66667,54.333333 c -1.02059,-1.020587 -0.79251,-4.137523 0.35463,-4.846497 1.06364,-0.657368 8.90773,2.537543 8.9529,3.646533 0.0588,1.44389 -8.02182,2.485677 -9.30753,1.199964 z M 348,48.940983 c 0,-0.582459 0.45,-0.780902 1,-0.440983 0.55,0.339919 1,0.816476 1,1.059017 C 350,49.801558 349.55,50 349,50 c -0.55,0 -1,-0.476558 -1,-1.059017 z M 185.58345,43.356872 c -0.34679,-0.903721 -0.50743,-1.751269 -0.35699,-1.88344 C 185.89007,40.890428 190,43.03801 190,43.967776 c 0,1.687695 -3.73262,1.171394 -4.41655,-0.610904 z M 192,321 c 0,-0.55 -0.47656,-1 -1.05902,-1 -0.58246,0 -0.7809,0.45 -0.44098,1 0.33992,0.55 0.81648,1 1.05902,1 0.24254,0 0.44098,-0.45 0.44098,-1 z m 255.00256,-14.50308 c 1.58215,-1.90637 1.61302,-6.28665 0.0551,-7.82192 -1.58734,-1.56428 -4.05768,1.69252 -4.05768,5.34946 0,4.07883 1.7647,5.16892 4.00256,2.47246 z M 23,285.96482 c 0,-1.32439 -1.354172,-1.21065 -2.8,0.23518 -1.887588,1.88759 -1.402606,2.9788 0.8,1.8 1.1,-0.5887 2,-1.50453 2,-2.03518 z M 482.25,178.30964 c 1.24993,-0.71275 0.84349,-2.05979 -0.81335,-2.69557 -1.79652,-0.6894 -7.43665,1.93242 -7.43665,3.45692 0,0.93544 6.29282,0.35471 8.25,-0.76135 z M 23.806872,78.473539 c -0.307887,-0.307888 -0.867048,0.247112 -1.242579,1.233333 -0.542685,1.425198 -0.427821,1.540062 0.559795,0.559795 0.683418,-0.678334 0.990671,-1.485241 0.682784,-1.793128 z m 18.227074,-31.03287 c 1.749399,-3.057631 2.921854,-5.818202 2.605455,-6.134602 -0.953425,-0.953424 -6.646468,1.83862 -7.677618,3.765342 -1.10577,2.06615 -1.277017,6.280023 -0.295116,7.261924 1.358965,1.358966 2.260821,0.536859 5.367279,-4.892664 z M 300,18 c 0,-0.55 -0.45,-1 -1,-1 -0.55,0 -1,0.45 -1,1 0,0.55 0.45,1 1,1 0.55,0 1,-0.45 1,-1 z M 196.34934,12.532025 c 0.30982,-0.807386 0.13297,-1.733944 -0.39301,-2.059017 C 195.43035,10.147935 195,10.808524 195,11.940983 c 0,2.414565 0.55611,2.658155 1.34934,0.591042 z"
     id="path2999"
     style="fill:#e9c07c" />
  <path
     d="m 144,350.50898 c -4.125,-0.74928 -16.3642,-2.0755 -27.19822,-2.94717 -23.667503,-1.90419 -24.422389,-2.09774 -21.385563,-5.48307 1.171415,-1.30584 1.2086,-2.39143 0.215119,-6.28029 -1.389094,-5.43743 -2.637337,-7.20886 -2.617872,-3.71512 0.0074,1.32917 -1.230094,4.97368 -2.75,8.09891 -2.021755,4.15714 -3.568658,5.98492 -5.763464,6.80997 -3.038389,1.14216 -70.84131,1.53292 -72.644219,0.41866 C 11.385101,347.11997 11,346.00852 11,344.94098 11,343.46845 10.30411,343 8.1166314,343 4.7545125,343 4.0346556,341.29802 4.0136547,333.29922 3.993224,325.5176 5.8996762,317.92695 8.8608113,314 11.201464,310.89591 11.5,309.59507 11.5,302.5 l 0,-8 4.49222,-2.26495 c 2.470721,-1.24572 5.592338,-3.36506 6.936927,-4.70965 2.166459,-2.16646 2.251828,-2.51872 0.75006,-3.09501 -0.932056,-0.35766 -2.774905,0.0575 -4.09522,0.92262 -3.64834,2.39049 -4.261985,0.66716 -4.849242,-13.6183 -0.387124,-9.41709 -0.951782,-13.41701 -2.152808,-15.25 -2.021075,-3.08455 -3.3768411,-3.16219 -4.0984308,-0.23471 -0.4849376,1.96739 2.4332978,21.53584 4.0804988,27.36209 0.884659,3.1291 -2.027128,3.76365 -5.0540858,1.10141 C 4.0546967,281.6746 3,275.04462 3,256.36351 3,244.17928 3.2776499,241 4.3417124,241 c 0.7379418,0 1.8810055,1.8 2.5401415,4 0.659136,2.2 1.6303655,4 2.1582876,4 C 9.5680637,249 10,247.2 10,245 10,241.63687 9.3333333,240.33333 5.812887,236.81289 L 1.625774,232.62577 0.81262368,220.56638 C 0.31946006,213.25253 0.3930918,205.36781 0.99973668,200.52972 1.5498815,196.14223 2,188.2316 2,182.95055 c 0,-11.79165 0.5646252,-12.48036 13.5,-16.4668 4.95,-1.52549 9.448331,-3.17924 9.996291,-3.67498 0.596646,-0.53979 -3.076195,-0.80243 -9.156161,-0.65474 C 4.6833648,162.43719 2.4611458,161.54749 4.0945416,157.25134 4.6369177,155.82478 5.4950781,146.69815 6.0015647,136.96995 6.7380652,122.82381 7.3613946,118.10274 9.1147095,113.39115 11.220836,107.73146 23.749829,83.448412 30.470733,72 32.24659,68.975 35.794801,62.675 38.355647,58 40.916493,53.325 45.027418,46.35 47.491037,42.5 54.82322,31.041689 54.58159,31.59772 51.863486,32.438269 49.254582,33.245049 37.778282,35.971082 34.268189,36.617784 30.903461,37.237703 29.0002,42.036648 26.880662,55.244939 25.29456,65.129024 24.012211,69.347466 19.481035,79.586908 16.466466,86.399157 14,92.187052 14,92.448896 c 0,0.261843 -0.932332,2.967959 -2.071849,6.013591 -2.2169151,5.925233 -4.3169939,7.108693 -5.3451596,3.012153 -0.756237,-3.013087 0.055597,-33.9706 1.5385876,-58.670712 L 9.1840487,25.107856 6.5271471,21.624479 C 3.9364539,18.227905 2.9791818,13.460735 4.4197661,11.129821 5.8916125,8.7483236 13.192477,5.9531004 20.650113,4.9158386 29.610783,3.6695239 34.014308,4.2533417 36.517699,7.0195576 38.786138,9.5261537 40,9.5399084 40,7.059017 40,4.2777205 41.064097,3.8959663 51.313891,3.0000587 56.366251,2.5584451 61.681383,1.8930728 63.125295,1.5214535 c 2.305659,-0.59340696 2.762229,-0.2828586 3.75,2.5506608 C 67.493883,5.846597 68,9.0312961 68,11.149223 68,13.348432 68.485364,15 69.131669,15 c 0.733193,0 0.952123,-1.338619 0.621759,-3.801668 -0.338157,-2.5211446 0.08015,-4.9427262 1.241894,-7.1892857 l 1.751805,-3.38761755 35.876433,-0.1382106 c 23.00129,-0.0886103 36.11567,0.22124081 36.54306,0.86339605 0.44021,0.6614204 3.52546,0.5568792 9.08387,-0.3077998 11.02722,-1.71542087 29.04404,-1.01262774 33.48258,1.3060758 1.77819,0.92893 3.96503,3.1044105 4.85965,4.8344011 1.61765,3.1281957 1.40635,5.1364467 -1.33361,12.6747957 -0.95833,2.63661 3.65417,-1.785701 5.41598,-5.192665 1.36811,-2.645641 1.29667,-3.10571 -1.02771,-6.6180825 C 190.48217,0.23818432 189.78063,0.53802727 214,0.19934749 c 13.725,-0.19192819 22.88245,0.10170363 25.32286,0.81197231 2.41053,0.7015717 4.25776,0.7650656 5,0.1718632 0.71504,-0.57145557 4.31763,-0.60988571 9.17714,-0.097896 4.4,0.463576 13.08117,1.2971415 19.29148,1.8523676 20.82736,1.8620458 29.90563,6.2970941 25.77959,12.5942194 C 297.70698,16.850642 297,18.642826 297,19.514507 c 0,2.618929 2.46703,0.523961 8.27373,-7.025924 6.23602,-8.1081086 3.07034,-7.5364523 30.72627,-5.548517 12.60111,0.9057801 17.8108,1.6501102 18.61024,2.6589254 1.31218,1.6558316 6.50116,1.8192086 11.39636,0.35882 7.14236,-2.1307857 24.33879,-3.7245505 30.72249,-2.8473588 7.39485,1.0161354 10.28708,0.1392574 13.39187,-4.0601915 2.04708,-2.76881727 2.76835,-3.04887652 7.8171,-3.03525513 3.05907,0.0082533 9.10062,1.11420473 13.42567,2.45766993 8.41624,2.6142891 8.36767,2.6174582 21.62967,-1.4114137 C 454.91477,0.47756797 463.14519,0 471.28324,0 c 12.71566,0 15.336,0.27526311 18.63326,1.9574032 2.11026,1.0765717 4.11733,2.6883761 4.46017,3.5817874 0.89497,2.3322618 0.76784,6.9505324 -0.26621,9.6702784 -0.52307,1.37578 -0.46642,17.940628 0.1375,40.20823 0.92537,34.119413 0.86493,38.382865 -0.61046,43.063323 -2.15688,6.842428 -2.07076,8.429048 0.6125,11.284258 2.15301,2.29098 2.25,3.1343 2.25,19.56445 0,9.44365 -0.41103,21.8726 -0.9134,27.61988 -0.89977,10.29368 -0.97277,10.51402 -4.89177,14.76564 -3.86714,4.19535 -4.11031,4.29852 -8.69732,3.69003 -4.27705,-0.56737 -5.03626,-0.34246 -8.10754,2.40172 -4.24663,3.79437 -3.26988,4.96229 2.28968,2.7378 2.98277,-1.19347 5.6224,-1.51796 8.79148,-1.08073 3.63002,0.50083 9.35297,2.11759 10.78338,3.04636 0.13998,0.0909 -0.15322,1.47573 -0.65156,3.07741 -5.11322,16.43412 -5.33409,17.42873 -4.17933,18.82012 1.39998,1.68688 2.26559,59.99457 1.15907,78.07474 -0.60414,9.87136 -1.01037,11.81141 -2.89276,13.81513 -2.67556,2.848 -2.77719,4.38101 -0.34169,5.154 2.59473,0.82354 4.2988,5.03571 4.88691,12.07959 0.44082,5.27974 0.20742,6.40138 -1.87281,9 -1.30701,1.63272 -4.52678,6.18452 -7.15504,10.11511 C 478.67219,341.6721 470.98089,349 467.54284,349 465.84337,349 465,348.4511 465,347.34501 c 0,-1.46157 -0.24564,-1.43268 -2.10191,0.24722 -1.59239,1.44109 -3.98693,1.9878 -9.87823,2.25534 -10.38043,0.4714 -12.44081,-0.61777 -11.72128,-6.19614 l 0.53548,-4.15143 -4.80545,5.40819 -4.80544,5.40819 -16.36159,-0.18866 c -8.99887,-0.10377 -21.76158,0.27054 -28.36158,0.8318 -8.54922,0.72701 -17.17617,0.68497 -30,-0.1462 -16.84665,-1.09192 -18.44977,-1.37126 -25.01938,-4.35965 -9.62592,-4.37865 -10.37016,-5.41761 -8.09758,-11.30428 3.88311,-10.05845 4.14388,-11.82121 2.31588,-15.65457 C 325.76451,317.53535 325,315.49741 325,314.96607 c 0,-1.27567 3.7079,-1.24772 4.5,0.0339 0.33992,0.55 1.63047,1 2.86789,1 1.23742,0 3.12267,0.63822 4.18946,1.41828 1.90619,1.39383 1.90007,1.47175 -0.35465,4.52142 -1.26184,1.70673 -2.0463,3.50435 -1.74324,3.99471 1.59056,2.57357 19.77874,1.69944 22.99054,-1.10492 1.35365,-1.18193 5.31568,-1.02526 7.80832,0.30876 1.24996,0.66896 9.15953,1.3082 19.18426,1.55045 9.38158,0.22671 18.27091,0.4553 19.75407,0.50797 1.48316,0.0527 5.16107,-1.15111 8.17313,-2.67508 4.79942,-2.42828 5.87531,-2.6318 8.70257,-1.64621 1.77435,0.61854 5.15739,1.12462 7.51786,1.12462 2.36046,0 4.56987,0.45 4.90979,1 1.18784,1.92197 5.64727,0.9759 9.32279,-1.97783 4.82473,-3.87726 9.57534,-4.87683 12.14134,-2.55464 2.63538,2.38499 3.66479,1.38748 4.41656,-4.27969 0.47015,-3.54414 1.60493,-5.97932 4.19806,-9.0088 l 3.55374,-4.15175 -2.77466,-2.57147 c -3.62197,-3.35673 -2.37829,-5.52276 4.10952,-7.15726 5.46405,-1.37658 5.07308,-1.11174 5.97556,-4.04778 0.55455,-1.8041 0.19536,-2.43781 -1.81497,-3.20214 -3.22431,-1.22588 -4.19918,-3.14844 -5.61569,-11.07485 -0.6363,-3.56059 -1.79936,-7.47046 -2.58458,-8.68861 -2.11982,-3.28859 -1.7287,-6.2202 1.57233,-11.78518 1.63124,-2.75 2.97357,-6.25543 2.98295,-7.78984 0.0195,-3.19551 3.08171,-9.68901 5.52556,-11.71723 C 477.03586,232.89542 482,222.41951 482,219.1835 c 0,-1.62568 0.88907,-3.67812 2.04733,-4.72634 1.27535,-1.15417 1.93522,-2.81515 1.75,-4.40498 -0.24271,-2.08337 -1.2136,-2.856 -5.28546,-4.20615 -6.7195,-2.22805 -7.85751,-4.232 -4.20611,-7.40662 1.54317,-1.34168 3.87912,-2.43941 5.19099,-2.43941 1.31187,0 2.66333,-0.45 3.00325,-1 0.33992,-0.55 -0.23878,-1 -1.286,-1 C 480.74272,194 478,190.93391 478,188.17126 478,186.97707 477.86033,186 477.68961,186 c -0.49664,0 -11.92705,4.60983 -14.89865,6.00856 -2.29784,1.08159 -3.09471,1.02243 -5.25,-0.38976 -4.39633,-2.88059 -3.19493,-5.03327 8.03221,-14.3922 13.09879,-10.91913 12.15305,-9.68783 12.66442,-16.48839 0.258,-3.43102 0.80823,-7.02571 1.22274,-7.98821 0.61936,-1.43817 0.23566,-1.75 -2.15334,-1.75 -4.49409,0 -5.23752,-1.44062 -4.60945,-8.93224 0.42405,-5.0581 0.16561,-7.43172 -1.06915,-9.81949 -3.16609,-6.12254 -0.82008,-11.8375 2.84723,-6.93596 1.46113,1.95288 1.55516,1.97302 0.876,0.18769 -0.41845,-1.1 -0.85109,-4.31324 -0.96143,-7.14053 -0.11105,-2.84537 -0.96285,-6.30382 -1.9078,-7.746 -1.21386,-1.85258 -1.95645,-6.14643 -2.56984,-14.85947 C 468.67337,78.15179 468.18976,75.558726 465.37164,71.405984 462.36994,66.982739 459,58.758427 459,55.856061 459,51.242391 455.4929,39.25148 453.04626,35.5 c -1.96798,-3.01754 -3.70632,-4.334382 -7.07749,-5.361408 -2.45782,-0.748774 -6.62501,-2.18048 -9.26042,-3.181569 -4.34708,-1.651283 -5.12131,-1.682422 -8.34468,-0.335615 -3.05869,1.278002 -3.85289,1.289761 -5.70834,0.08452 C 421.4699,25.935916 417.8,25.015943 414.5,24.661544 c -3.3,-0.354399 -9.825,-1.100516 -14.5,-1.658039 -4.675,-0.557523 -11.2,-0.75357 -14.5,-0.43566 -4.30166,0.414405 -7.05237,0.132788 -9.71788,-0.994914 -5.25924,-2.225035 -7.57841,-2.027832 -7.96257,0.677069 -0.42258,2.975472 -4.45679,3.435858 -10.35821,1.182085 -5.46807,-2.088276 -14.16806,-1.448291 -23.01924,1.693331 -5.189,1.841776 -7.43707,2.042531 -17.73773,1.583991 l -11.79564,-0.525089 -2.46691,3.907841 C 301.08502,32.241472 299.25261,34 298.36981,34 296.6564,34 291.40059,28.995469 286.37405,22.577756 l -3.07201,-3.922243 -4.40102,1.125902 c -2.42056,0.619247 -7.04676,1.411413 -10.28044,1.76037 -4.41139,0.476048 -6.43754,1.236688 -8.11467,3.046342 -2.69956,2.912869 -5.4074,3.05052 -9.61949,0.488996 -2.42275,-1.473362 -3.74502,-1.701181 -5.65625,-0.974534 -3.05494,1.161487 -5.58509,0.471907 -10.52224,-2.867783 -3.70131,-2.503725 -3.87563,-2.525262 -7.28392,-0.899959 -4.69656,2.239633 -6.09047,2.103836 -7.97823,-0.777252 -1.02774,-1.568536 -2.7355,-2.552459 -4.77305,-2.75 C 212.26001,16.573682 211.42345,15.961028 211.18045,14.25 211.0047,13.0125 210.2922,12 209.59712,12 c -2.01127,0 -2.67428,1.202104 -1.466,2.657991 C 209.67111,16.51356 207.4932,19 204.3279,19 c -4.94567,0 -10.5003,4.346947 -13.73661,10.75 -0.90346,1.7875 -2.13419,3.25 -2.73496,3.25 -0.95967,0 -4.43659,-2.572736 -10.0884,-7.464877 -1.34455,-1.163826 -1.52125,-2.053745 -0.78979,-3.977619 0.88605,-2.330496 0.80415,-2.415429 -1.37278,-1.423556 -1.8324,0.834896 -3.17094,0.618161 -6.42037,-1.039571 C 164.08504,16.492572 162.78201,16.478413 160.5,19 c -2.41517,2.668738 -4.34735,2.520431 -7.58586,-0.582262 -2.64153,-2.530744 -2.76013,-2.548738 -5.94476,-0.901903 -3.04912,1.576759 -3.7593,1.573367 -11.51887,-0.05503 l -8.26942,-1.735387 -3.93571,4.13729 C 120.98092,22.243155 118.38414,24 117.13009,24 c -1.43317,0 -2.52182,0.90014 -3.17892,2.628439 -1.06901,2.811698 -0.80513,2.794886 -11.74346,0.748179 C 96.64815,26.336352 90.755582,29.317502 86.048684,35.551744 83.786273,38.548285 81.294772,41 80.512014,41 79.729256,41 77.487829,39.913539 75.531065,38.585643 73.5743,37.257747 70.151204,35.863444 67.924185,35.487191 62.986098,34.652907 60.567904,36.43136 59.29594,41.83281 c -0.674283,2.863369 -1.535225,3.886697 -3.927787,4.668622 -1.685318,0.550788 -3.807601,1.618388 -4.716184,2.372445 -2.080265,1.726466 -2.134597,5.480688 -0.103712,7.166173 2.50484,2.078832 1.279915,5.222206 -2.959729,7.595183 -2.151309,1.204113 -4.474875,3.241277 -5.163479,4.527031 -3.635615,6.78838 -5.57815,13.627637 -6.142679,21.627083 -0.586039,8.304245 -0.758029,8.801646 -4.042798,11.691943 -6.621199,5.82603 -7.895375,9.61484 -10.210093,30.36002 -0.949412,8.5089 -0.864164,9.74399 0.956665,13.86027 2.177898,4.9235 1.668333,4.80283 11.624767,2.75279 2.770584,-0.57047 3.345889,-0.26034 5.258843,2.83489 2.086869,3.37662 4.663002,4.89893 10.423066,6.15926 3.825606,0.83706 4.217269,2.61978 1.50812,6.86446 l -2.30094,3.60511 -6.116171,-0.58343 -6.116172,-0.58343 -1.383828,4.33718 c -1.031559,3.23309 -2.014935,4.48415 -3.863011,4.91455 -1.979393,0.46098 -2.621433,1.41066 -3.184812,4.71081 -0.388096,2.27339 -1.347322,5.40531 -2.131613,6.95983 -1.824337,3.61597 -4.77545,15.91966 -4.755478,19.8264 0.104074,20.35806 1.018678,32.41783 3.14612,41.48407 C 27.363517,258.65136 27.540328,259 30.174622,259 c 2.109955,0 3.432877,1.02262 5.829814,4.50645 3.197202,4.64697 7.923447,7.6937 13.957365,8.99749 3.396673,0.73394 11.053017,5.16467 11.022886,6.37895 -0.04199,1.6924 -2.139474,3.15226 -9.198434,6.40214 -6.353752,2.9252 -7.953438,4.13876 -9.073253,6.88315 -1.344335,3.29464 -1.432562,3.33204 -7.906047,3.35131 -4.018643,0.012 -7.178412,0.5439 -8.18291,1.37756 -0.900003,0.74694 -3.093379,1.65606 -4.874169,2.02027 C 17.759939,299.73335 16.577206,303 20.271688,303 c 1.330085,0 3.24575,0.91428 4.257032,2.03174 1.011283,1.11745 2.543527,1.96563 3.404988,1.88484 5.575715,-0.5229 5.429634,2.23727 -0.398486,7.52931 -3.723132,3.38068 -4.572545,4.84313 -5.113544,8.80411 -0.599923,4.3924 -0.487229,4.75 1.496897,4.75 1.180114,0 3.754014,-0.67201 5.719778,-1.49336 1.965763,-0.82135 4.071755,-1.1858 4.679982,-0.8099 0.608227,0.37591 2.595072,0.58317 4.41521,0.46059 1.820139,-0.12258 5.114199,0.26313 7.320134,0.85712 3.503913,0.94351 4.337518,0.82299 6.596093,-0.9536 2.620803,-2.06152 3.442704,-1.96628 6.623857,0.76763 1.359697,1.16853 2.048171,1.24972 2.95,0.34789 1.895162,-1.89516 4.492496,-1.35638 5.175722,1.07363 0.594976,2.11614 0.697186,2.14039 1.717964,0.40772 0.842931,-1.4308 1.815162,-1.70537 4.352821,-1.2293 2.171062,0.40729 4.772994,-0.0324 7.754172,-1.31024 3.580127,-1.53463 4.610387,-2.54166 5.09883,-4.98387 0.452226,-2.26113 1.631785,-3.58083 4.51554,-5.05201 4.783182,-2.4402 6.523387,-1.47448 8.078011,4.48283 1.608991,6.16564 4.602261,8.30912 14.678111,10.51098 10.10101,2.20735 27.88745,2.58961 34.77536,0.74737 3.57675,-0.95663 6.69479,-0.85163 16.68355,0.56182 6.75657,0.95608 13.53619,2.38551 15.06582,3.17651 1.52963,0.79101 3.29245,1.43819 3.91736,1.43819 0.62492,0 3.90977,-2.63973 7.29966,-5.86607 9.67042,-9.20384 11.05841,-9.48571 13.61376,-2.76464 1.00202,2.63552 1.32051,2.76343 5.30783,2.13179 2.33303,-0.36959 6.07144,-1.53352 8.30758,-2.58653 5.34422,-2.51659 5.73763,-2.46512 10.04177,1.31397 l 3.67709,3.22853 1.47968,-2.22853 c 1.7506,-2.63654 3.99105,-2.76393 10.73574,-0.61042 2.75,0.87804 6.65101,1.53209 8.6689,1.45345 2.0179,-0.0786 3.95696,0.32308 4.30902,0.89273 1.08741,1.75947 3.52208,1.14228 3.52208,-0.89285 0,-3.7641 2.67588,-5.07143 10.3803,-5.07143 4.81552,0 7.88701,-0.49131 9.17857,-1.4682 1.06762,-0.8075 3.33211,-1.4825 5.0322,-1.5 1.70009,-0.0175 5.30009,-0.70193 8,-1.52098 2.69991,-0.81904 8.41055,-1.49404 12.69031,-1.5 5.98715,-0.008 7.91411,-0.35669 8.35699,-1.51082 1.71739,-4.47543 9.01984,2.11742 8.0889,7.30287 -0.49895,2.77921 -3.67117,11.05907 -6.57678,17.16617 -0.90777,1.90797 -3.17954,4.49547 -5.04837,5.75 -3.31095,2.2226 -4.01453,2.2793 -27.5,2.21623 -13.25617,-0.0356 -33.77712,-0.50759 -45.60212,-1.04886 -11.825,-0.54127 -22.625,-0.95063 -24,-0.90969 -6.61736,0.19704 -18.56531,-0.20807 -19.28675,-0.65394 -0.4457,-0.27546 -0.294,-1.12302 0.33711,-1.88346 1.48318,-1.78712 2.94738,-8.28162 2.26691,-10.05491 C 196.62688,334.58528 195,335.62768 195,337.86918 c 0,2.74079 -5.96032,8.19567 -11.98422,10.96797 -4.8387,2.22684 -7.01628,2.55396 -18.5,2.77904 -7.8035,0.15295 -16.01922,-0.29044 -20.51578,-1.10721 z m 16.18388,-8.01321 c 0.62755,-1.37732 0.85432,-2.7909 0.50394,-3.14129 -0.80441,-0.8044 -15.27343,1.49148 -18.6568,2.96038 -2.33692,1.01458 -2.10924,1.14718 2.96898,1.729 11.98842,1.37354 13.94352,1.17421 15.18388,-1.54809 z m 128.07591,-4.01202 c 4.4611,-0.66898 7.74583,-2.81146 6.38963,-4.16766 -0.62137,-0.62138 -17.43444,4.09415 -20.89942,5.86161 -3.905,1.99192 -1.38084,2.49768 4.04201,0.8099 3.18561,-0.99147 7.89611,-2.1182 10.46778,-2.50385 z m 127.34503,0.42925 c 1.73381,-1.43893 1.83604,-4.90815 0.14518,-4.92675 -0.6875,-0.008 -6.5913,1.20518 -13.11957,2.69497 -8.51855,1.944 -11.34175,2.93637 -10,3.51506 2.65776,1.14627 21.30177,0.10487 22.97439,-1.28328 z m -32.91803,0.44046 c -1.49332,-1.49332 -32.05128,-3.88286 -37.2302,-2.91129 -8.27776,1.55291 -0.72052,2.35043 31.96008,3.37274 3.25416,0.1018 5.62572,-0.10585 5.27012,-0.46145 z m 89.79036,-8.44958 c 1.86616,-3.62787 4.54722,-7.96783 5.95793,-9.64436 2.59572,-3.08483 3.39259,-6.25952 1.57119,-6.25952 -2.6224,0 -11.4941,15.77171 -12.65641,22.5 -0.6702,3.87961 0.53849,2.32467 5.12729,-6.59612 z M 78,336 c 0,-0.55 -0.701558,-1 -1.559017,-1 -0.857459,0 -1.280902,0.45 -0.940983,1 0.339919,0.55 1.041476,1 1.559017,1 C 77.576558,337 78,336.55 78,336 z m 407,-77.4349 c 0,-1.3392 -0.43738,-3.5853 -0.97196,-4.99134 -0.8768,-2.30617 -1.21944,-2.44368 -3.5,-1.40458 -3.20673,1.46108 -3.17818,2.54279 0.15905,6.0261 3.29816,3.44254 4.31291,3.52955 4.31291,0.36982 z M 13.491957,191.35787 c 1.396741,-6.00858 1.248355,-7.49818 -0.566174,-5.68365 -1.146464,1.14646 -2.630921,13.22152 -1.496795,12.1754 0.387803,-0.3577 1.316139,-3.27899 2.062969,-6.49175 z M 485,148.5 c 0,-0.825 -0.40186,-1.5 -0.89301,-1.5 -0.49116,0 -1.15203,0.675 -1.46862,1.5 -0.35062,0.91371 -0.002,1.5 0.89301,1.5 0.80774,0 1.46862,-0.675 1.46862,-1.5 z m -5.98048,-41.75 c 0.0107,-0.1375 0.682,-5.2 1.4917,-11.25 1.72076,-12.857452 1.87853,-17.301364 0.56627,-15.95 -2.05088,2.112003 -6.39576,23.4298 -5.33993,26.2 0.38824,1.01865 3.21329,1.87942 3.28196,1 z m 2.5762,-62.255678 C 480.73778,35.026631 477.91752,25.5 475.97265,25.5 c -0.79489,0 -1.5965,0.78533 -1.78135,1.745178 C 473.5014,30.827541 479.82676,52 481.5869,52 c 0.37893,0 0.3829,-3.377555 0.009,-7.505678 z M 321.97197,15.038482 c 1.26096,-0.79744 1.22512,-1.025622 -0.25,-1.591676 C 319.67085,12.659714 317,13.52048 317,14.968615 c 0,1.278944 2.9936,1.32101 4.97197,0.06987 z m -58.16013,-1.776998 c -0.18414,-0.956185 -1.15448,-1.896371 -2.1563,-2.089305 -1.55997,-0.300422 -1.66095,-0.05081 -0.70333,1.738517 1.35362,2.529269 3.32576,2.771189 2.85963,0.350788 z M 128.5,6 c 0.731,-1.1827829 -0.24752,-1.1827829 -3,0 -1.92824,0.8285913 -1.92138,0.8619515 0.19098,0.9297147 C 126.89602,6.9683716 128.16008,6.55 128.5,6 z m 48.94069,325.90404 c -0.97313,-1.57457 2.10385,-4.29279 4.02489,-3.55562 1.28821,0.49433 1.39947,1.03522 0.54236,2.63674 -1.17432,2.19424 -3.49098,2.66032 -4.56725,0.91888 z m 131.48239,-21.82712 c -2.94011,-2.94011 -3.80582,-6.41332 -1.89318,-7.5954 1.06622,-0.65896 9.90076,4.01414 11.21434,5.93191 0.85449,1.24752 -2.73601,4.58657 -4.93195,4.58657 -0.80637,0 -2.78152,-1.31538 -4.38921,-2.92308 z"
     id="path2995"
     style="fill:#dca765" />
  <path
     d="m 145.5,349.94583 c -6.05,-0.98638 -17.75,-2.28919 -26,-2.89513 C 99.851009,345.60752 95.84258,345.06373 96.539663,343.93582 96.857767,343.42112 98.918034,343 101.11803,343 c 2.41203,0 3.75465,-0.39699 3.38197,-1 -0.33992,-0.55 -1.66138,-1 -2.93657,-1 -3.097558,0 -4.242918,-1.60408 -5.058578,-7.08456 -0.375276,-2.5215 -1.042078,-5.16666 -1.481783,-5.87811 -1.283618,-2.07694 -3.023196,-0.19338 -3.021592,3.27169 8.12e-4,1.75504 -1.236688,5.76312 -2.75,8.90686 -2.201807,4.57399 -3.350795,5.85601 -5.751477,6.41735 -2.257561,0.52788 -49.42534,0.80835 -69.25,0.41178 -1.739241,-0.0348 -2.25,-0.62963 -2.25,-2.62038 0,-2.30561 -0.340412,-2.54128 -3.25,-2.25 L 5.5,342.5 l -0.3234587,-6 c -0.6101184,-11.3174 0.6605358,-18.24485 4.055826,-22.11187 3.2224397,-3.67016 3.6932017,-6.15882 2.4833157,-13.12794 -0.61492,-3.54203 -0.400084,-4.57579 1.305379,-6.28125 1.122791,-1.12279 3.393519,-2.31186 5.046063,-2.64237 1.652544,-0.3305 3.659472,-1.53585 4.459841,-2.67853 1.373412,-1.96082 1.722738,-2.00122 6.214125,-0.71869 6.449384,1.84166 9.758909,1.89048 9.758909,0.14398 0,-0.77916 -1.125,-1.75282 -2.5,-2.16367 -1.375,-0.41085 -5.033638,-1.50551 -8.130306,-2.43258 -4.485786,-1.34292 -6.078605,-1.44564 -7.835647,-0.5053 -1.212937,0.64914 -2.364895,1.02071 -2.559907,0.82569 -0.195012,-0.19501 -0.797438,-6.263 -1.338724,-13.48442 -0.617254,-8.23494 -1.571565,-14.26579 -2.559786,-16.1768 C 12.709034,253.47044 12,250.26252 12,248.01754 c 0,-5.21261 -1.927383,-9.57157 -6.2612282,-14.16036 -3.230236,-3.42026 -3.5109437,-4.2756 -4.594591,-14 C 0.1686162,211.10268 0.23915868,208.10733 1.600054,200.5 2.7041629,194.32809 3.025386,188.77858 2.6222998,182.83947 1.858669,171.58807 2.5105832,170.75105 14.5,167.58907 c 10.234561,-2.69916 18.946058,-4.04946 20.385571,-3.15979 0.622985,0.38502 0.523059,2.14023 -0.275406,4.8375 -1.02547,3.46411 -1.653926,4.18906 -3.459045,3.99016 -2.401088,-0.26457 -4.15112,2.8332 -4.15112,7.348 0,1.3611 -0.839774,4.14431 -1.866166,6.1849 -4.160371,8.27132 -5.141075,17.2333 -4.181314,38.21016 0.516831,11.29604 1.520436,21.81394 2.38547,25 0.821304,3.025 1.643745,6.85 1.827645,8.5 0.300175,2.69324 0.649534,2.96853 3.416568,2.69223 2.615215,-0.26113 3.65101,0.38639 6.836425,4.27377 3.997596,4.87854 8.884491,7.86231 14.581372,8.9029 1.925,0.35162 4.85,1.72615 6.5,3.05451 l 3,2.4152 -6.997993,3.15014 c -7.601625,3.42186 -10.339071,5.44254 -11.467402,8.46479 -0.602309,1.61329 -1.777171,1.98129 -6.74558,2.11289 -3.308934,0.0876 -7.315119,0.82103 -8.902634,1.62973 -1.587515,0.8087 -4.236391,2.12515 -5.886391,2.92544 -2.126805,1.03157 -3,2.17159 -3,3.91674 0,2.04631 0.548364,2.51453 3.25,2.77502 3.159306,0.30461 4.409026,2.35229 2.25,3.68664 -1.450693,0.89658 -1.228274,4.5 0.277759,4.5 0.702768,0 2.048363,-0.9 2.990213,-2 0.941849,-1.1 2.472363,-2 3.401141,-2 1.148586,0 0.240233,1.38786 -2.840065,4.33931 -3.869149,3.7073 -4.629096,5.09572 -5.217686,9.53273 -0.378913,2.85639 -0.419922,5.6287 -0.09113,6.1607 0.825348,1.33544 3.527461,1.21013 8.104041,-0.37582 2.940536,-1.019 5.806082,-1.12307 11.875727,-0.43133 10.514907,1.19837 11.254142,1.16312 13.038975,-0.62171 1.683794,-1.68379 4.011867,-1.21675 4.852321,0.97344 0.6599,1.71967 3.764199,1.86718 5.375921,0.25546 0.889624,-0.88962 1.261471,-0.83016 1.563531,0.25 1.970532,7.04663 2.085024,7.18264 7.169252,8.51685 6.498529,1.70535 6.261482,1.72723 7.015231,-0.64762 1.046796,-3.29816 -1.029611,-4.96158 -4.539608,-3.63671 -3.407144,1.28606 -5.657952,-0.0948 -4.609231,-2.82772 0.466186,-1.21486 1.365349,-1.48577 3.427814,-1.03278 4.474363,0.98274 12.067107,-2.87863 13.795806,-7.01599 2.604833,-6.23424 9.403366,-7.67055 9.413726,-1.98881 0.0052,2.83905 3.422762,8.17271 6.183432,9.65017 7.37782,3.94849 34.60968,6.23879 44.51714,3.74407 5.90309,-1.48642 24.84957,0.48625 31.17281,3.24564 2.40741,1.05056 4.76108,1.91012 5.23037,1.91012 0.46928,0 4.30883,-3.15 8.53231,-7 4.22349,-3.85 8.04875,-7 8.50058,-7 0.45183,0 1.09556,1.09188 1.4305,2.4264 1.16854,4.65584 3.48815,5.74986 9.53124,4.49533 2.96883,-0.61632 6.39455,-1.75084 7.6127,-2.52116 3.21712,-2.0344 4.57005,-1.75644 7.78518,1.59943 3.37831,3.5262 5.72264,3.80337 7.64763,0.90418 1.21953,-1.83671 1.98255,-2.0072 6.17152,-1.37903 2.62897,0.39424 5.39648,1.33334 6.15004,2.08689 0.89756,0.89757 2.45312,1.1535 4.51027,0.74207 1.84803,-0.36961 4.13027,-0.0982 5.54627,0.65966 2.85848,1.52981 5.16477,0.17133 5.66424,-3.33639 0.28201,-1.98059 1.04501,-2.22527 8.4424,-2.70731 4.47281,-0.29147 8.76275,-1.0531 9.5332,-1.69252 0.77045,-0.63942 3.62907,-1.46477 6.35249,-1.83411 2.72341,-0.36934 6.00026,-1.07021 7.2819,-1.55748 1.28163,-0.48728 6.10841,-0.88596 10.72618,-0.88596 7.2495,0 8.66391,-0.28762 10.35832,-2.10635 2.26111,-2.42703 3.52104,-1.94397 5.64564,2.16455 1.38561,2.67948 1.35382,3.25405 -0.37003,6.68659 -1.03724,2.06536 -2.66339,6.13168 -3.61366,9.03625 -3.11441,9.51944 -7.96739,13.13522 -17.04641,12.70064 -2.2,-0.10531 -11.875,-0.2771 -21.5,-0.38176 l -17.5,-0.19029 4.5,-2.42616 C 271.62685,344.44977 285.20136,340 288.82912,340 292.61887,340 296,337.37997 296,334.4433 296,333.09948 295.6013,332 295.11399,332 c -3.27812,0 -22.59402,7.3965 -27.09119,10.37384 -3.01245,1.99439 -5.82495,3.62616 -6.25,3.62616 -0.42504,0 -0.7728,0.89052 -0.7728,1.97894 0,1.92805 -0.53364,1.96317 -20.75,1.36556 -16.4387,-0.48593 -21.3368,-0.94904 -23.57425,-2.22894 -2.65227,-1.51719 -2.90908,-1.50007 -4.21746,0.28106 -1.23303,1.67858 -2.22374,1.81944 -8.61719,1.22523 -3.97319,-0.36927 -7.36874,-0.81616 -7.54567,-0.99308 -0.17692,-0.17693 0.38464,-2.01216 1.24792,-4.07828 2.05013,-4.90664 1.60536,-9.05049 -0.9714,-9.05049 -1.28189,0 -2.1876,0.97046 -2.70248,2.89568 -0.88597,3.31278 -5.16077,8.15113 -8.95285,10.13311 -4.32509,2.26058 -15.68389,4.47873 -22.22867,4.34083 C 159.28458,351.79791 151.55,350.93221 145.5,349.94583 z M 159.2954,345.75 c 0.92271,-0.6875 1.9792,-2.78367 2.34776,-4.65816 l 0.6701,-3.40815 -6.90663,0.65767 c -3.79865,0.36173 -10.50663,1.53075 -14.90663,2.59784 -6.8752,1.66737 -9.02895,1.78952 -15.31828,0.86876 -5.27572,-0.77236 -7.62378,-0.7659 -8.41284,0.0232 -1.87214,1.87214 3.61829,3.15935 14.04622,3.29309 5.32669,0.0683 12.8349,0.44751 16.6849,0.84266 3.85,0.39514 7.70149,0.78925 8.55887,0.87579 0.85738,0.0865 2.31382,-0.40516 3.23653,-1.09266 z M 43.418213,343.39301 C 45.915399,342.43475 45.298859,340 42.559017,340 c -2.63389,0 -4.052989,1.39172 -3.059017,3 0.711384,1.15104 1.687634,1.24896 3.918213,0.39301 z M 215.5,341 c 0.33992,-0.55 0.14148,-1 -0.44098,-1 -0.58246,0 -1.05902,0.45 -1.05902,1 0,0.55 0.19844,1 0.44098,1 0.24254,0 0.7191,-0.45 1.05902,-1 z M 8.0436899,215.44528 c 0.9434597,-3.8199 2.6572831,-9.56746 3.8084961,-12.77234 2.885771,-8.03374 5.476594,-18.67749 4.728447,-19.42564 -0.340812,-0.34081 -1.848378,-0.19025 -3.350146,0.33458 -2.161856,0.75551 -2.795824,1.67935 -3.044226,4.43617 -0.172557,1.91507 -1.6350566,10.10749 -3.2500001,18.20537 -3.3251653,16.67352 -3.3694952,17.08766 -1.7721066,16.5552 0.6402848,-0.21343 1.9360758,-3.51343 2.8795356,-7.33334 z M 372.73491,351.40175 c -0.1292,-0.12911 -7.43491,-0.74903 -16.23491,-1.3776 -12.957,-0.9255 -17.23622,-1.62762 -22.5,-3.69173 -10.92441,-4.28383 -11.56555,-5.54358 -7.5,-14.7365 2.79786,-6.32646 3.02288,-8.35421 1.33756,-12.05309 -1.43821,-3.15652 -0.79994,-3.90058 2.28321,-2.66163 1.30858,0.52585 3.19869,1.21584 4.20026,1.53332 1.72906,0.54807 1.71626,0.72437 -0.25345,3.49057 -2.43696,3.4224 -1.8406,5.86279 1.64659,6.73802 3.9223,0.98443 18.41635,-0.24347 22.35423,-1.89381 3.1575,-1.32329 3.89456,-1.3246 6.40091,-0.0114 2.2114,1.15867 7.3495,1.51197 23.4316,1.61116 19.78679,0.12205 20.78166,0.0342 25.22889,-2.22823 4.06307,-2.06698 5.06061,-2.2131 8.14931,-1.19374 1.93573,0.63885 4.6931,0.86699 6.12749,0.50699 1.67485,-0.42036 3.48727,-0.0784 5.0655,0.95567 3.59261,2.35397 6.26101,1.98968 10.6004,-1.44718 4.69217,-3.71627 9.93699,-4.84099 11.84633,-2.54038 1.46971,1.77089 3.65502,2.09634 4.53337,0.67514 0.31363,-0.50746 1.02218,-3.30575 1.57456,-6.21842 0.68791,-3.62738 1.94455,-6.26584 3.98878,-8.37495 3.53304,-3.64517 3.75509,-6.03477 0.84829,-9.12891 l -2.13617,-2.27385 2.38617,-0.97614 C 467.42622,295.5682 469.85,294.7292 471.5,294.24063 476.11852,292.87307 478.71544,285 474.548,285 c -2.46116,0 -4.61856,-3.83801 -5.68069,-10.10591 -0.59594,-3.51675 -1.70987,-7.39076 -2.47541,-8.60891 -2.0658,-3.28715 -1.69867,-6.8645 1.14557,-11.16244 1.39561,-2.1089 2.9003,-6.1296 3.34375,-8.93488 0.57101,-3.61219 1.85744,-6.38331 4.40862,-9.4967 C 479.21276,231.90377 484,222.28293 484,219.18652 c 0,-1.0679 0.64607,-2.47782 1.43572,-3.13317 0.78965,-0.65535 1.73204,-2.54068 2.09421,-4.18961 0.86357,-3.93182 -1.52084,-6.58085 -7.21378,-8.01435 -6.82102,-1.71755 -5.22564,-4.8606 3.37412,-6.64737 4.82595,-1.00268 4.97361,-3.31801 0.30973,-4.85682 -3.29399,-1.08683 -3.48886,-1.39584 -3.31067,-5.25 C 480.79346,184.84284 480.468,183 479.96608,183 c -0.50192,0 -2.94962,0.9 -5.43933,2 -2.48971,1.1 -6.59678,2.91603 -9.12683,4.03562 -7.17098,3.1733 -11.32112,0.43176 -6.14992,-4.06258 1.2375,-1.07552 4.22265,-3.74821 6.63367,-5.93931 2.41102,-2.19109 5.15513,-4.22866 6.09803,-4.52792 0.9429,-0.29927 3.08892,-2.25458 4.76894,-4.34514 2.49623,-3.10622 3.06187,-4.74023 3.09439,-8.939 0.0489,-6.31344 1.65175,-9.88419 3.6809,-8.20015 1.97041,1.6353 3.47407,0.33737 3.47407,-2.99875 0,-6.24632 -2.53958,-7.90059 -5.40804,-3.52277 -1.13073,1.72571 -2.5461,2.5 -4.56987,2.5 l -2.93181,0 0.20486,-7.25 c 0.11267,-3.9875 -0.1382,-8.47551 -0.55751,-9.97336 -0.5844,-2.08765 -0.44673,-2.60224 0.58979,-2.20449 2.68698,1.03109 3.56723,-1.79249 2.20472,-7.07215 -0.86427,-3.34899 -0.97177,-5.60901 -0.32556,-6.84435 0.73466,-1.40444 0.43831,-2.40475 -1.24246,-4.19385 -1.9573,-2.08344 -2.35883,-4.24309 -3.54587,-19.071431 -1.31058,-16.37158 -1.41263,-16.841817 -4.87034,-22.443748 C 463.21471,64.546398 461.99963,60.79923 458.94499,46.5 456.33664,34.289898 452.64083,29.879042 442.97484,27.440023 439.41368,26.541436 436.0725,25.399827 435.55,24.903114 c -1.29312,-1.229296 -4.94445,-1.136141 -7.8792,0.201019 -1.93618,0.882182 -2.95109,0.758321 -5.04882,-0.616168 -1.44639,-0.947706 -3.56098,-1.475673 -4.70847,-1.175598 -1.14563,0.299588 -5.27637,-0.121142 -9.17944,-0.934954 -5.90243,-1.230693 -18.49545,-1.832612 -27.23407,-1.301731 -1.1,0.06683 -3.99814,-0.625154 -6.44031,-1.537734 -5.23334,-1.955573 -8.60359,-1.390074 -9.37862,1.57365 -0.59878,2.289733 -1.35138,2.287589 -10.40747,-0.02964 -4.98798,-1.276297 -15.75726,-0.03617 -21.82564,2.513305 -3.21539,1.350866 -6.18883,1.563297 -16.02445,1.144831 -6.64206,-0.282593 -12.77055,-0.125385 -13.61886,0.349352 -0.84831,0.474737 -2.10598,2.223822 -2.79483,3.886856 -2.16146,5.218213 -3.08977,4.657744 -14.78722,-8.927751 -2.87101,-3.33441 -3.1032,-3.413767 -6.84719,-2.340212 -2.13148,0.61118 -6.96861,1.571003 -10.74918,2.13294 -5.11367,0.760083 -7.5566,1.675887 -9.54041,3.576495 l -2.66662,2.554791 -3.7961,-2.034585 c -2.87373,-1.540228 -4.80773,-1.882991 -7.9596,-1.410681 -3.48347,0.522 -4.81201,0.183705 -8.13403,-2.071215 -4.50779,-3.059802 -6.6227,-3.309434 -11.35993,-1.340858 -3.19379,1.327196 -3.41264,1.271159 -5.3334,-1.36562 C 218.60623,16.061221 216.90049,15 215.41659,15 213.40893,15 213,14.502331 213,12.059017 c 0,-4.1731295 -1.46591,-4.5681687 -5.50878,-1.484526 -2.8076,2.141463 -3.28621,2.967609 -2.36338,4.079546 1.44932,1.746322 0.88206,2.316937 -3.29862,3.318154 -1.83107,0.438518 -4.15863,1.138397 -5.17236,1.555287 -1.70696,0.70198 -1.68514,0.448286 0.29534,-3.43378 l 2.13848,-4.191761 -3.03944,-5.3123765 -3.03943,-5.312377 5.24409,-0.62989964 c 2.88426,-0.34644482 12.42906,-0.63381111 21.21067,-0.63859176 12.64989,-0.00688652 16.89407,0.34552469 20.43159,1.6965182 3.31997,1.2679049 4.56806,1.3961311 4.86677,0.5 0.4905,-1.47151449 11.38113,-1.65915155 12.81941,-0.2208686 0.54139,0.5413879 7.08279,1.4201671 14.53645,1.9528425 13.89294,0.9928583 23.26263,3.4100308 25.99901,6.7071658 1.08952,1.312797 0.92618,2.221842 -1.00091,5.570227 -1.6992,2.952425 -2.00942,4.294891 -1.18338,5.120936 1.75432,1.754321 4.04834,-0.202502 9.23103,-7.874169 5.3587,-7.9322079 7.53341,-9.3132446 12.14297,-7.7113059 1.75477,0.6098268 7.24049,1.3781587 12.19049,1.7074042 20.89139,1.3895753 23.91832,2.4638198 11.25,3.9925827 -3.1625,0.381638 -5.75,1.075752 -5.75,1.542476 0,2.95233 17.95225,1.572944 35,-2.689274 8.81252,-2.2032745 12.58345,-2.6092732 23.46386,-2.5262434 l 12.96385,0.098929 3.74609,-3.9379562 C 413.47266,0.47013963 414.46784,0 418.5096,0 c 2.52435,0 5.80487,0.61485826 7.29006,1.3663517 1.48519,0.7514934 4.50034,1.6917621 6.70034,2.089486 2.2,0.3977239 4.56209,1.1876283 5.2491,1.755343 0.85984,0.7105481 2.10634,0.7021464 4,-0.026961 1.51299,-0.5825433 4.3259,-1.3642686 6.2509,-1.7371673 1.925,-0.3728987 4.13085,-1.1885349 4.90189,-1.812525 1.93533,-1.56623029 28.42233,-2.15357013 33.15633,-0.73522981 8.79615,2.63538951 11.01813,7.63402341 6.76071,15.20907541 -2.05699,3.659936 -2.11296,4.32184 -0.98394,11.636155 1.79319,11.617096 1.9563,65.15009 0.22182,72.803102 -1.36433,6.01982 -1.35841,6.05986 1.28628,8.70455 1.74835,1.74835 2.68097,3.78383 2.72728,5.95237 0.30708,14.38051 -0.12398,29.2379 -1.15458,39.79545 -1.20096,12.30259 -1.27702,12.55995 -4.81589,16.29602 -3.24021,3.42076 -3.95675,3.73501 -7.24828,3.17891 -4.15524,-0.70202 -11.08468,2.22352 -12.783,5.39685 -1.83507,3.42886 1.86564,4.24782 7.05911,1.56217 2.50944,-1.29768 4.15609,-1.39049 9.60875,-0.54159 3.61919,0.56345 6.93218,1.38068 7.36221,1.81605 0.90929,0.9206 -2.14472,12.54613 -4.48443,17.07063 -1.48196,2.8658 -1.47234,3.22002 0.13102,4.82338 1.54716,1.54716 1.76088,4.8109 2.01784,30.81401 0.15807,15.99596 -3.7e-4,35.58854 -0.35209,43.53907 l -0.6395,14.4555 -3.09975,2.89561 -3.09976,2.89561 3.14386,2.64889 C 491.32001,304.8878 494,310.73479 494,315.5613 c 0,2.3758 -1.06411,4.57896 -3.75,7.76407 -2.0625,2.44585 -5.325,7.01517 -7.25,10.15403 -5.74538,9.36828 -16,17.77139 -16,13.11113 0,-2.13965 9.72529,-21.11061 12.5323,-24.44655 2.52599,-3.00196 3.27802,-7.52514 1.44002,-8.66109 -1.41297,-0.87326 -6.64979,4.93902 -9.42333,10.45884 -1.25972,2.50705 -3.50677,8.10503 -4.99345,12.43995 -4.44166,12.95114 -5.33832,13.65302 -16.42822,12.85954 -9.31722,-0.66664 -9.55624,-1.11099 -5.64334,-10.49122 1.14945,-2.75554 -1.73047,-2.14733 -4.73514,1 -1.44394,1.5125 -3.66563,4.29704 -4.93709,6.18786 L 432.5,349.37571 409,349.6383 c -12.925,0.14442 -26.31929,0.6531 -29.76509,1.13039 -3.4458,0.47729 -6.3708,0.76217 -6.5,0.63306 z m 43.05052,-10.24798 c 0.70699,-0.44858 1.55337,-2.46669 1.88084,-4.48469 0.57045,-3.51523 0.47462,-3.66879 -2.28543,-3.66207 -1.58446,0.004 -6.48084,0.85756 -10.88084,1.89713 -13.19975,3.11865 -15.47837,3.24996 -28.47014,1.6406 -13.59986,-1.68468 -33.70341,-2.03742 -35.92558,-0.63035 -0.76764,0.48607 -1.11926,1.60418 -0.78138,2.48469 0.47847,1.24687 2.22463,1.63001 7.89572,1.73248 4.00476,0.0724 12.45638,0.44456 18.78138,0.8271 16.82194,1.01743 48.29502,1.14077 49.78543,0.19511 z m 62.0229,-66.22877 c -0.19708,-0.59125 -0.78583,-1.075 -1.30833,-1.075 -0.5225,0 -1.11125,0.48375 -1.30833,1.075 -0.19709,0.59125 0.39166,1.075 1.30833,1.075 0.91667,0 1.50542,-0.48375 1.30833,-1.075 z m 8.46444,-16.46357 c -0.49463,-8.62307 -2.20521,-10.29834 -7.05026,-6.90473 -3.0502,2.13645 -2.78936,4.26324 1.00269,8.17565 4.25237,4.38733 6.34688,3.94716 6.04757,-1.27092 z M 492.03102,140.25 c -1.61667,-7.22679 -3.38445,-6.81283 -2.84349,0.66586 0.47425,6.55635 3.01986,11.41751 3.66521,6.99916 0.19401,-1.32826 -0.17577,-4.77752 -0.82172,-7.66502 z m -12.3076,-32.5 c 1.2815,-1.6543 4.53406,-28.915433 3.70707,-31.070547 -1.82588,-4.758171 -4.48293,0.983362 -7.57247,16.363085 -1.7516,8.719492 -1.963,11.431642 -1.04765,13.440612 1.2389,2.71909 3.36366,3.26697 4.91305,1.26685 z m 3.75076,-59.5 C 482.61716,39.805107 480.32949,28.484173 478.96469,25.934022 478.37119,24.825049 476.87815,24 475.46482,24 473.33704,24 473,24.456711 473,27.340037 c 0,4.266039 3.3454,17.391696 5.91092,23.191491 1.1787,2.664653 2.63696,4.468472 3.61244,4.468472 1.42053,0 1.54567,-0.888402 0.95082,-6.75 z M 323.78187,15.351943 C 326.8743,13.400682 325.70188,12 320.97617,12 c -4.31994,0 -6.91419,2.661976 -4.7264,4.849772 1.26965,1.269643 4.00963,0.724772 7.5321,-1.497829 z m -57.96567,-1.15471 c 0.22679,-1.539261 -0.62151,-2.717816 -3,-4.167934 C 259.17972,7.8122049 256,7.3786927 256,9.1 c 0,1.752737 6.84551,8.117649 8.2375,7.659172 0.69437,-0.228705 1.40479,-1.381578 1.5787,-2.561939 z m 44.17136,294.289527 c -1.53162,-1.63034 -2.01899,-2.85533 -1.38732,-3.487 1.19523,-1.19523 8.73506,3.6487 7.86661,5.05387 -1.06109,1.71689 -4.08027,0.98677 -6.47929,-1.56687 z M 7.1735417,283.7091 C 5.3505926,281.51259 4.2137582,274.05861 3.5575758,260 c -0.7040821,-15.08485 0.06059,-18.25961 2.8663086,-11.90031 1.3936679,3.15882 1.5664343,4.62614 0.7545101,6.40812 -0.7810312,1.71418 -0.5453753,5.49893 0.9122817,14.65169 1.0809323,6.78728 2.2080538,13.128 2.5047148,14.0905 0.640414,2.07779 -1.80605,2.40602 -3.4218493,0.4591 z M 43.25,165.29427 c -1.377428,-0.26531 -2.25,-1.15913 -2.25,-2.3048 0,-1.02929 -0.416508,-2.12885 -0.925573,-2.44347 -0.509065,-0.31462 -7.977789,-0.12375 -16.597165,0.42416 C 6.843918,162.0275 3.1428585,161.4802 4.5639771,158.17331 4.9594797,157.25299 5.6728171,150.875 6.1491715,144 7.8550102,119.38042 8.0858149,118.3973 15.949357,102.25558 19.90291,94.140012 26.190342,82.1 29.921429,75.5 33.652515,68.9 38.424987,60.35 40.526921,56.5 42.628856,52.65 46.745181,45.85029 49.67431,41.389534 54.507384,34.029271 56.149375,30 54.315724,30 c -0.376351,0 -2.655265,0.95414 -5.064252,2.12031 -2.408987,1.166171 -7.292929,2.354134 -10.853204,2.639919 -9.540206,0.765796 -10.743824,2.733356 -13.88012,22.689897 -1.165211,7.414341 -2.919363,13.148456 -6.88309,22.5 -2.925651,6.902431 -6.125894,14.748331 -7.111652,17.435334 -1.3505781,3.68144 -2.0027138,4.50945 -2.6461187,3.35975 C 6.9840246,99.149036 8.1882958,66.137325 10.064448,40.790353 L 11.153238,26.080707 7.5766189,21.396551 C 5.6094785,18.820266 4,15.684249 4,14.427626 4,9.1621127 11.036977,5.9484446 24,5.2939657 l 9.5,-0.4796373 3.331244,3.5928358 c 4.179339,4.5075298 5.44193,4.5658978 4.625477,0.2138295 -0.630661,-3.3617129 -0.609142,-3.3844143 4.204687,-4.4357105 2.661225,-0.5811873 8.307234,-1.2745066 12.546686,-1.5407096 8.800889,-0.552624 9.073614,-0.3064758 8.653463,7.8101894 -0.245979,4.751932 1.096451,7.307258 3.166675,6.027789 0.783846,-0.484444 1.023923,-2.327474 0.689578,-5.293774 -0.327942,-2.9094985 0.01478,-5.6574047 0.950346,-7.6196837 L 73.131419,0.5 l 35.837951,0 c 19.71087,0 35.62778,0.34067827 35.37091,0.7570628 -1.10095,1.7846068 3.35157,1.8827586 10.94848,0.2413493 6.41516,-1.3860773 10.41673,-1.61899488 18.68721,-1.0877178 5.78822,0.37182225 10.67403,1.1065251 10.85736,1.6326731 C 185.01667,2.5695153 185.72573,3 186.40902,3 c 2.21357,0 5.87557,4.834763 5.84385,7.715355 -0.0169,1.531555 -0.63015,4.721597 -1.36286,7.088983 -1.07909,3.486544 -1.08921,4.454517 -0.0532,5.094776 0.99404,0.614352 0.80029,1.601721 -0.86975,4.432225 -2.37784,4.030145 -2.79073,3.979728 -8.76488,-1.070249 l -3.29787,-2.787707 1.61006,-3.853424 c 2.6078,-6.241444 0.36953,-9.079166 -2.8553,-3.619959 -2.05157,3.473035 -4.14761,3.746703 -7.65907,1 -3.2303,-2.526775 -7.2133,-2.526775 -9.5,0 -2.31123,2.553884 -2.72915,2.519506 -6.34357,-0.521829 -2.93889,-2.472909 -3.06533,-2.489256 -6.51819,-0.8427 -3.3084,1.577665 -4.01576,1.572266 -11.7062,-0.08935 l -8.18502,-1.768478 -3.68408,4.030329 c -2.50066,2.735679 -4.86923,4.252664 -7.37351,4.72247 C 112.89577,23.054534 112,23.708705 112,25.22479 c 0,1.717328 -0.46242,1.915441 -3.25,1.392385 -9.435169,-1.770399 -10.325174,-1.756481 -14.935,0.233547 -3.165112,1.366354 -5.922647,3.646651 -8.5,7.028929 -2.09825,2.753548 -4.395722,5.032078 -5.105493,5.0634 -0.70977,0.03132 -2.50977,-0.826891 -4,-1.90714 -1.490229,-1.080248 -4.854061,-2.525467 -7.475182,-3.211597 -4.601467,-1.204524 -4.857694,-1.15549 -7.43625,1.423065 -1.468815,1.468816 -3.149261,4.125683 -3.734324,5.904149 -0.799088,2.429056 -1.869227,3.440773 -4.301171,4.066356 C 48.305809,46.492943 45.285011,53.331796 48.5,56 c 2.446509,2.030422 1.744201,3.820753 -2.566203,6.541792 -5.938132,3.748579 -9.909159,12.893303 -11.023089,25.384646 -0.814042,9.128473 -0.963818,9.555201 -4.738323,13.500002 -4.999729,5.2253 -7.940451,10.90245 -8.58499,16.57356 -0.281291,2.475 -0.971838,8.55 -1.53455,13.5 -1.108376,9.75004 -0.479481,13.41661 3.076666,17.93752 2.224747,2.82831 4.563148,3.16468 9.525613,1.37023 3.179404,-1.14969 3.432829,-1.04526 7.098168,2.92502 2.090576,2.2645 5.138821,4.4136 6.773878,4.77577 5.776711,1.27958 5.737947,1.23407 3.818425,4.48356 -1.73707,2.94063 -2.498373,3.18763 -7.095595,2.30217 z M 88.187947,11.567912 C 91.659576,10.780264 101.7,9.8227264 110.5,9.4400504 c 12.02651,-0.5229837 17.29908,-1.1767845 21.23099,-2.6326501 5.1454,-1.9051818 7.04262,-3.3671201 5.87933,-4.5304152 -0.32448,-0.3244739 -4.06397,0.1734041 -8.30998,1.1063956 -4.24601,0.9329915 -13.5881,2.1155518 -20.76018,2.6279118 C 87.095461,7.54326 83.05589,8.0869675 81.490855,9.6520018 79.807079,11.335778 79.532239,13 80.937947,13 c 0.515871,0 3.778371,-0.644439 7.25,-1.432088 z"
     id="path2993"
     style="fill:#d29250" />
  <path
     d="m 165,349.56739 c 0,-1.98625 3.50031,-2.90518 5.99024,-1.57262 C 173.83587,349.51771 172.57849,351 168.44098,351 166.12094,351 165,350.53331 165,349.56739 z M 300.2,348.8 c -1.9565,-1.9565 -1.3735,-4.76382 1.23623,-5.9529 3.12683,-1.42468 5.2786,-0.56708 6.76557,2.69645 0.96314,2.11387 0.91481,2.7703 -0.25866,3.51275 -2.05259,1.29867 -6.32974,1.1571 -7.74314,-0.2563 z m 122.03223,-0.49955 c -1.48325,-1.26328 -2.2906,-3.44139 -2.70605,-7.30045 -0.69368,-6.44358 0.46148,-9.10758 3.19535,-7.369 1.80189,1.14589 2.11734,3.53849 0.8558,6.49094 -0.51301,1.20063 0.2961,2.13525 3.11482,3.59804 4.84193,2.51274 5.21814,5.64231 0.73094,6.08047 -1.8799,0.18356 -3.89931,-0.39998 -5.19086,-1.5 z m 32.47768,0.0761 c -0.34288,-0.34288 0.43179,-2.03038 1.72148,-3.75 1.28969,-1.71962 3.48513,-5.40485 4.87874,-8.18939 2.78098,-5.5566 5.68987,-8.75379 5.68987,-6.25381 0,2.97957 -4.35261,14.4116 -6.30754,16.56662 -1.97208,2.17392 -4.6949,2.91423 -5.98255,1.62658 z M 64.685421,346.47201 c -6.522025,-1.42209 -7.530732,-2.0267 -5.975662,-3.58177 0.768566,-0.76857 2.751504,-0.73178 6.933333,0.12864 6.816454,1.40248 9.650551,2.69698 8.825899,4.03129 -0.713034,1.15372 -2.260022,1.0623 -9.78357,-0.57816 z m -48.154412,-0.42184 c -0.823616,-1.33264 1.824139,-2.50019 10.293108,-4.53886 5.669623,-1.3648 7.589746,-1.49353 8.5,-0.56987 1.666334,1.69088 -1.301459,3.67351 -7.483435,4.99931 -6.12594,1.31378 -10.538953,1.35647 -11.309673,0.10942 z M 163.18358,342.25855 C 163.5526,339.06136 167,337.67761 167,340.72668 167,342.68026 165.22685,345 163.73358,345 c -0.47653,0 -0.72403,-1.23365 -0.55,-2.74145 z M 330.38,343.54789 C 329.67629,341.71403 330.70049,340 332.5,340 c 2.05808,0 2.83785,1.88799 1.46365,3.5438 -1.53843,1.85369 -2.8733,1.85521 -3.58365,0.004 z M 297,336.18031 c 0,-3.17399 2.67704,-5.1855 3.62243,-2.72186 0.90114,2.34832 -0.0308,4.99651 -1.88391,5.35339 C 297.40264,339.06911 297,338.45965 297,336.18031 z M 489.35875,320.717 c -0.47231,-0.82173 -1.71052,-1.65672 -2.75157,-1.85553 -2.78662,-0.53216 -4.39083,-3.48313 -2.76372,-5.08395 1.05635,-1.03928 1.64152,-0.85792 3.13782,0.97248 2.35354,2.87906 3.01872,2.83697 3.01872,-0.19098 0,-2.47246 1.60568,-4.28667 2.76653,-3.12582 1.26043,1.26043 0.59607,7.63278 -0.95778,9.18662 -1.39993,1.39993 -1.6945,1.41161 -2.45,0.0972 z M 7.6875,320.35417 C 6.2719847,318.93865 7.0729675,317 9.0733242,317 c 1.3979618,0 1.9680048,0.54305 1.7499998,1.66713 -0.356943,1.84048 -2.0640019,2.75886 -3.135824,1.68704 z M 477.63837,248.5 c -0.31658,-0.825 -0.29904,-2.2875 0.039,-3.25 1.20719,-3.43749 10.84609,-17.18302 12.07266,-17.21619 2.16635,-0.0586 1.36417,4.79473 -1.85858,11.24471 -4.69121,9.38894 -8.77824,13.06477 -10.25305,9.22148 z M 7.1835777,230.32712 C 7.6444564,226.43399 10,226.0907 10,229.91667 10,232.04885 9.5167882,233 8.4335777,233 c -1.1101231,0 -1.4742485,-0.77861 -1.25,-2.67288 z M 5.1976799,181.25 c -3.3783013,-2.92112 -3.6551698,-5.88342 -0.8153137,-8.72328 1.4113661,-1.41136 3.15249,-2.25871 3.9848672,-1.93929 C 10.124652,171.26181 13,176.976 13,179.79414 13,183.203 8.4403039,184.05381 5.1976799,181.25 z M 485.02196,120.75 c 0.0313,-3.20573 3.60608,-10.67004 5.44871,-11.37712 2.62119,-1.00584 4.52933,1.56171 4.52933,6.09458 0,5.06083 -2.24077,7.53254 -6.82874,7.53254 -2.62855,0 -3.1675,-0.38505 -3.1493,-2.25 z m -7.50169,-47.916842 c -0.7714,-2.139 0.87276,-11.130836 2.11073,-11.543492 1.52146,-0.507154 2.5415,5.495555 1.55403,9.145174 -0.86458,3.195457 -2.8975,4.525851 -3.66476,2.398318 z M 21.484564,29.597632 C 12.094083,25.051018 4,17.912539 4,14.177331 4,9.961767 13.184911,6 22.958222,6 c 4.821928,0 6.426402,0.4527601 8.859409,2.5 1.634094,1.375 3.397843,2.5 3.919441,2.5 1.947815,0 9.743631,4.696738 9.262928,5.580628 -0.275,0.505654 -3.810176,0.77322 -7.855947,0.59459 -6.502817,-0.287114 -7.633606,-0.06394 -9.75,1.924314 -4.1234,3.873733 -3.049738,6.547091 3.518105,8.759885 4.638996,1.562939 4.912532,0.824713 0.63054,-1.701723 C 27.229862,23.613058 26.824994,20.990335 30.75,21.02262 c 1.5125,0.01244 6.35,1.47494 10.75,3.25 6.082794,2.453936 8,3.6853 8,5.13816 0,2.569863 -5.355255,4.421327 -13,4.494472 -5.105997,0.04885 -7.343305,-0.592984 -15.015436,-4.30762 z M 474,20.154988 c 0,-2.319546 2.67471,-4.690293 6.25,-5.539731 1.85464,-0.440635 2.75,-1.298332 2.75,-2.634309 0,-2.7978845 -1.2058,-2.4863891 -6.0536,1.563833 -8.01934,6.699972 -9.83608,2.113815 -2.98874,-7.544781 3.43666,-4.8476318 4.29313,-5.48906104 7.22074,-5.40777561 5.47059,0.15189136 12.44218,3.75991581 13.21504,6.83921101 1.08289,4.3145766 -1.32666,7.7591056 -7.89798,11.2904486 C 479.59472,22.430251 474,23.07191 474,20.154988 z M 45,11.5 c 0,-0.825 0.45,-1.5 1,-1.5 0.55,0 1,0.675 1,1.5 0,0.825 -0.45,1.5 -1,1.5 -0.55,0 -1,-0.675 -1,-1.5 z m 264.10428,0.610876 c -1.84857,-1.203973 -0.83318,-3.5871792 2.44297,-5.7337902 2.63224,-1.7247151 5.35203,-1.1792325 6.15671,1.2347939 0.96038,2.8811523 -5.7187,6.3753723 -8.59968,4.4989963 z M 237.5,7.192105 C 225.41813,2.0984011 222.17364,0 226.37978,0 234.48682,0 254,7.819406 254,11.068094 c 0,1.973434 -5.92938,0.580573 -16.5,-3.875989 z M 72.24508,9.8450797 c -1.63893,-1.6389299 -1.570732,-3.3146585 0.2806,-6.8947396 1.94117,-3.75380852 5.745456,-3.9923613 8.031368,-0.5036176 1.378355,2.1036354 1.415668,2.839807 0.266098,5.25 -1.487964,3.1196715 -6.381242,4.3451815 -8.578066,2.1483572 z M 53.75,8.4235769 C 47.006163,6.3165227 47.333461,4 54.375,4 c 2.95625,0 6.814452,-0.2878904 8.573782,-0.6397564 3.137223,-0.6274446 3.192551,-0.5745222 2.875,2.75 C 65.527778,9.2091821 65.199724,9.5174878 62,9.7038369 60.075,9.8159472 56.3625,9.2398302 53.75,8.4235769 z M 433,5.5313848 c 0,-0.8945931 0.58629,-1.2436349 1.5,-0.8930112 0.825,0.3165822 1.5,0.977459 1.5,1.4686152 C 436,6.598145 435.325,7 434.5,7 433.675,7 433,6.3391232 433,5.5313848 z M 416.5,4.1218646 c -4.53314,-0.9693449 -3.87222,-3.55766931 1,-3.91626368 4.30035,-0.31650479 8.27824,1.72616828 7.09376,3.64269518 -0.75891,1.2279322 -3.23871,1.3117494 -8.09376,0.2735685 z"
     id="path2991"
     style="fill:#a36336" />
  <path
     d="m 301.48066,347.59622 c -1.48148,-1.09322 -1.69469,-1.75191 -0.846,-2.61356 1.81164,-1.83929 5.86534,-0.80008 5.86534,1.50364 0,2.49131 -2.42168,3.02681 -5.01934,1.10992 z m 121.38012,-0.52193 c -2.13639,-1.74267 -2.19371,-1.99074 -0.60306,-2.60995 1.8555,-0.72231 6.74228,1.85704 6.74228,3.55871 0,1.64854 -3.64584,1.0851 -6.13922,-0.94876 z m 36.18022,-3.13187 c 1.19745,-1.68166 2.41405,-2.82071 2.70355,-2.5312 0.74662,0.74662 -2.57666,5.58878 -3.8357,5.58878 -0.57477,0 -0.0653,-1.37591 1.13215,-3.05758 z M 27.8125,343.31689 c 0.721875,-0.28887 1.584375,-0.25335 1.916667,0.0789 0.332291,0.33229 -0.258334,0.56864 -1.3125,0.52522 -1.164943,-0.048 -1.4019,-0.28494 -0.604167,-0.60416 z m 392.66048,-4.63411 c -0.41324,-1.0168 -0.24694,-2.30882 0.37757,-2.93333 1.68713,-1.68713 2.60392,-0.0701 1.4123,2.49097 -0.96466,2.07331 -1.11221,2.10978 -1.78987,0.44236 z M 479,246.69555 c 0,-1.49967 6.04129,-10.97605 8.73105,-13.69555 1.31461,-1.32914 1.40002,-1.21524 0.74989,1 -1.08668,3.70274 -6.83388,13.28431 -8.25163,13.7569 C 479.55319,247.98227 479,247.50466 479,246.69555 z M 5.0501871,179.56047 C 3.1449925,177.26485 4.1234179,172.5 6.5,172.5 c 2.0539434,0 5.906833,6.03271 4.896722,7.66711 -0.836729,1.35385 -5.054025,0.95074 -6.3465349,-0.60664 z M 486.6403,121.22702 c -0.26275,-0.42514 0.44306,-2.90014 1.56847,-5.5 2.54606,-5.88175 5.79123,-6.667 5.79123,-1.40133 0,4.53175 -5.58654,9.77036 -7.3597,6.90133 z M 31,32.059791 C 24.501769,30.062746 12.090516,22.842592 8.6947367,19.08387 3.7344261,13.593399 3.9473015,12.173446 10.117207,9.5954945 18.661821,6.025327 28.575145,6.6630838 32.534068,11.037645 33.510817,12.11694 35.085131,13 36.032543,13 c 0.947412,0 2.304039,0.70063 3.014726,1.556956 1.150774,1.386597 0.743755,1.484208 -3.719855,0.892089 C 30.667489,14.830884 30.05845,15.009783 26.6577,17.995681 24.645965,19.762008 23,22.027907 23,23.031012 c 0,2.407173 4.306155,5.705067 9.15362,7.010354 6.589413,1.774344 8.01713,-0.828043 2.303682,-4.19906 -1.948484,-1.149633 -3.316798,-2.316143 -3.040697,-2.592244 0.897236,-0.897236 16.640006,5.079348 16.28126,6.181016 C 46.824459,32.113207 36.475274,33.74246 31,32.059791 z M 476.17026,19.346562 c 0.20477,-1.067816 1.81113,-2.319151 3.80901,-2.967165 4.24013,-1.375291 5.94051,-3.697685 4.44417,-6.069878 -1.72324,-2.7319127 -2.78483,-2.5513391 -7.75208,1.318608 -5.4187,4.221668 -6.84073,3.9095 -3.78559,-0.831022 1.16869,-1.8134079 2.90999,-4.9628879 3.86956,-6.9988448 1.94168,-4.11975491 2.77446,-4.17072374 11.00119,-0.6733111 8.56584,3.6415777 7.74094,9.5903709 -1.96952,14.2033519 -8.05652,3.827269 -10.04361,4.244299 -9.61674,2.018261 z M 310,9.5351838 c 0,-2.052882 3.90289,-4.032289 5.26498,-2.6702062 0.73368,0.7336788 0.66441,1.5151803 -0.22981,2.5926408 C 313.41047,11.415269 310,11.467806 310,9.5351838 z M 73.628465,8.485608 C 72.419757,7.2769003 72.329758,6.3525017 73.182599,3.9060403 c 1.32978,-3.81460859 3.667169,-4.83197941 5.462009,-2.3773906 1.792872,2.4518987 1.714035,4.9698504 -0.216037,6.8999217 -1.961559,1.9615596 -2.884615,1.9725276 -4.800106,0.057037 z M 242.5,7.0004371 C 239.2,5.3541075 237.625,4.284416 239,4.6233448 c 4.10432,1.011688 8.70957,3.0977163 9.43694,4.2746214 0.93573,1.5140508 0.84028,1.4835418 -5.93694,-1.8975291 z M 58.159984,7.7482517 c -2.387009,-0.4958542 -4.187009,-1.0310996 -4,-1.1894342 C 54.346993,6.4004829 56.8625,5.9694765 59.75,5.6010254 63.944285,5.0658258 65,5.2181591 65,6.3585684 65,8.3984032 63.124294,8.7794896 58.159984,7.7482517 z M 416.23102,2.2751885 C 412.3209,1.7910716 412.90833,0 416.97723,0 420.43811,0 423,0.89624317 423,2.1069888 c 0,0.8969385 -0.73549,0.9152144 -6.76898,0.1681997 z M 226,1 c -1.18736,-0.76733275 -0.97894,-0.96937445 1,-0.96937445 1.375,0 3.175,0.4362185 4,0.96937445 1.18736,0.7673327 0.97894,0.9693745 -1,0.9693745 -1.375,0 -3.175,-0.4362186 -4,-0.9693745 z"
     id="path2989"
     style="fill:#692914" />
</svg>
